<svg xmlns="http://www.w3.org/2000/svg" version="1.1" xmlns:xlink="http://www.w3.org/1999/xlink" xmlns:svgjs="http://svgjs.com/svgjs" width="105.38" height="102.32"><svg xmlns="http://www.w3.org/2000/svg" viewBox="0 0 105.38 102.32"><defs><style>.cls-1,.cls-3,.cls-4,.cls-6{fill:none;stroke:#1a1a18;stroke-miterlimit:22.93;}.cls-1{stroke-width:1.28px;}.cls-2{fill:#3e8024;fill-rule:evenodd;}.cls-3{stroke-width:1.28px;}.cls-4{stroke-width:1.28px;}.cls-5{fill:#fff;}.cls-6{stroke-width:1.28px;}.cls-7{fill:#1a1a18;}</style></defs><g id="SvgjsG1001" data-name="Layer 2"><g id="SvgjsG1000" data-name="Layer 1"><path class="cls-1" d="M94.23,54c-13,19.23-21.94,30-51.67,32.34,9.25,2.3,18.94.65,29-1.94C65,91.35,55.85,101.82,50.75,101.68c-8.9-.24-27-30-25.11-52.83,3.25,13.38,11.87,23.6,25.33,24C65.65,73.21,83.46,63.05,94.23,54Z"></path><path class="cls-2" d="M94.23,54c-13,19.23-21.94,30-51.67,32.34,9.25,2.3,18.94.65,29-1.94C65,91.35,55.85,101.82,50.75,101.68c-8.9-.24-27-30-25.11-52.83,3.25,13.38,11.87,23.6,25.33,24,14.68.4,32.49-9.76,43.26-18.78"></path><path class="cls-3" d="M41.86,1.16c23,2.65,36.73,5.61,52.55,30.89C92.18,22.79,86.23,15,79.3,7.25c9.15,2.56,22.67,5.88,24.9,10.46,3.9,8-14.15,37.79-35.26,46.68C79.31,55.32,84.39,43,78.5,30.85,72.07,17.64,54.83,6.55,41.86,1.16Z"></path><path class="cls-2" d="M41.86,1.16c23,2.65,36.73,5.61,52.55,30.89C92.18,22.79,86.23,15,79.3,7.25c9.14,2.56,22.67,5.88,24.9,10.46,3.9,8-14.15,37.78-35.26,46.68C79.31,55.32,84.39,43,78.5,30.85,72.07,17.64,54.83,6.55,41.86,1.16"></path><path class="cls-4" d="M22.55,75C11.83,54.43,6.63,41.44,18.73,14.18c-6.43,7-9.59,16.35-12.1,26.4-3-9-7.82-22.07-5.27-26.48,4.45-7.72,39.23-9.43,58.41,3.08-13.31-3.52-26.4-.8-33.14,10.86C19.29,40.76,19.75,61.25,22.55,75Z"></path><path class="cls-2" d="M22.55,75C11.84,54.43,6.63,41.44,18.73,14.18c-6.43,7-9.59,16.35-12.1,26.4-3-9-7.82-22.07-5.27-26.48,4.45-7.72,39.23-9.43,58.42,3.08C46.46,13.66,33.37,16.38,26.64,28c-7.35,12.72-6.89,33.21-4.09,47"></path><path class="cls-5" d="M35.05,17.51l-4.19-6.27-1.26.84,2,2.95a5.35,5.35,0,0,0,.66.78l-4.08-2.76L27,13.84l4.19,6.26,1.24-.83-2-3.06a4.8,4.8,0,0,0-.54-.67l4.07,2.75Zm-8.31,3.75a23.23,23.23,0,0,0-2-2.5l.82.58c.63.41,1.26.77,1.9,1.14Zm3.91-.7-6.81-3.72L22.8,18l4.4,6.36,1-1.1-.75-1.05,1-1.12,1.12.64ZM27,24.68l-1.15-.78L25,25.16l-1.4-.95.74-1.09-1.18-.8-.74,1.1-1.35-.92.84-1.24-1.16-.79L19.06,23l6.24,4.23Zm-2,3.11-1.27-.62-.69,1.4-5.49-2.71L16.9,27.2l6.76,3.33Zm-3.35,3.1a1.28,1.28,0,0,1,0,1,1.06,1.06,0,0,1-.62.67,3.32,3.32,0,0,1-2-.17A3.14,3.14,0,0,1,17.2,31a1.11,1.11,0,0,1,0-.89,1.17,1.17,0,0,1,.58-.67L16.31,29a2.09,2.09,0,0,0-.52.81,2.43,2.43,0,0,0,.1,2,4.58,4.58,0,0,0,2.65,2.11,4.12,4.12,0,0,0,3.22.07A2.31,2.31,0,0,0,23,32.46a1.92,1.92,0,0,0,.12-1.05Z"></path><path class="cls-5" d="M87.87,47.36l1.37.18.51-3.8-1.37-.18-.15,1.15-6.11-.82-.2,1.48,6.11.82ZM84.07,42a1.33,1.33,0,0,1-.42-.87,1.1,1.1,0,0,1,.31-.86,3.42,3.42,0,0,1,1.94-.66,3.15,3.15,0,0,1,2.2.49,1.15,1.15,0,0,1,.38.8,1.18,1.18,0,0,1-.27.85l1.53-.1a2.16,2.16,0,0,0,.16-.95A2.47,2.47,0,0,0,89,39a4.47,4.47,0,0,0-3.27-.89,4.12,4.12,0,0,0-3,1.2,2.33,2.33,0,0,0-.57,1.83,2,2,0,0,0,.3,1ZM82,37.47l1.36-.29-.32-1.49,1.66-.36.27,1.3,1.39-.3L86.1,35l1.59-.34L88,36.17l1.37-.3-.62-2.93-7.38,1.58Zm5-5.65,1.29-.48L87,27.75l-1.29.48.4,1.09-5.78,2.13.52,1.4,5.78-2.13Zm-4.84-5.15c-.59.35-2.18,1.2-2.68.36s1-1.84,1.59-2.19,2.18-1.2,2.68-.36S82.74,26.31,82.15,26.67ZM82.93,28A4.77,4.77,0,0,0,85,26a2.5,2.5,0,0,0-.1-2.23A2.46,2.46,0,0,0,83,22.63a4.85,4.85,0,0,0-2.79.87,4.85,4.85,0,0,0-2.08,2,2.36,2.36,0,0,0,2,3.38A4.79,4.79,0,0,0,82.93,28Zm-3.22-9.42.18.22a.89.89,0,0,1-.21,1.37.93.93,0,0,1-1.42-.08,1.49,1.49,0,0,1-.15-.2Zm-3.09,6.27,1.82-3.19a2.06,2.06,0,0,0,2.16-.38,2.16,2.16,0,0,0,.85-1.85A2.89,2.89,0,0,0,80.7,18l-1-1.25-5.83,4.77.94,1.16,2.69-2.2-1.85,3.22ZM74.6,16,76,14.57l.18.19c.47.47.31.91-.12,1.33s-.94.41-1.41-.07Zm1.24-3.29-5.39,5.27,1,1.07,2.22-2.17a2.15,2.15,0,0,0,3.4.33,2.24,2.24,0,0,0,.7-2.13A2.23,2.23,0,0,0,77.1,14Z"></path><path class="cls-5" d="M57.12,81.76,57,80.37l-1.53.11-.11-1.7,1.32-.09-.1-1.42-1.32.09-.12-1.62,1.5-.1-.09-1.4-3,.21L54.11,82Zm-7-3a1,1,0,0,1,.66.26,1.06,1.06,0,0,1,.27.79,1,1,0,0,1-.31.73,1.09,1.09,0,0,1-.68.22Zm.09-3a1,1,0,0,1,.6,1.62,1,1,0,0,1-.66.25Zm-1.46-1.27L48.54,82l1.58.05a2.45,2.45,0,0,0,1.79-.59,2,2,0,0,0,.61-1.48,2.06,2.06,0,0,0-.23-1.07,1.58,1.58,0,0,0-.79-.69,1.48,1.48,0,0,0,.61-.42,1.61,1.61,0,0,0,.38-1.06,2.28,2.28,0,0,0-.57-1.65,2.16,2.16,0,0,0-1.57-.58ZM48,74.35l-1.47-.25-.86,5c-.1.56-.19,1.22-.94,1.09s-.61-.85-.51-1.41l.85-4.93-1.47-.25-1,5.64c-.23,1.32.64,2.07,1.85,2.28A2.21,2.21,0,0,0,46.59,81,2.11,2.11,0,0,0,47,79.89Zm-7,6.23.5-1.32-1.46-.55L42.23,73l-1.39-.53-2.65,7.06Z"></path><path class="cls-6" d="M48,46.65a8.41,8.41,0,0,1-6.48,3,9.19,9.19,0,0,1-9.4-9.48c0-5.12,3.62-9.69,9.19-9.69A8.91,8.91,0,0,1,48,33.64V27.32a13.84,13.84,0,0,0-6.82-1.71A14.17,14.17,0,0,0,31,29.27,14.49,14.49,0,0,0,26.5,40.12,13.81,13.81,0,0,0,31,50.72a13.63,13.63,0,0,0,10.14,3.87A14.37,14.37,0,0,0,48,53Z"></path><path class="cls-7" d="M48,46.65a8.41,8.41,0,0,1-6.49,3,9.19,9.19,0,0,1-9.39-9.48c0-5.12,3.62-9.69,9.19-9.69A8.93,8.93,0,0,1,48,33.64V27.32a13.86,13.86,0,0,0-6.82-1.71A14.17,14.17,0,0,0,31,29.27,14.49,14.49,0,0,0,26.5,40.12,13.81,13.81,0,0,0,31,50.73a13.67,13.67,0,0,0,10.14,3.86A14.4,14.4,0,0,0,48,53Z"></path><polygon class="cls-6" points="50.24 33.77 50.24 61.5 64.21 61.5 64.21 56.84 55.65 56.84 55.65 33.77 50.24 33.77"></polygon><polygon class="cls-7" points="50.24 33.77 50.24 61.5 64.21 61.5 64.21 56.84 55.65 56.84 55.65 33.77 50.24 33.77"></polygon><path class="cls-6" d="M64.13,30.89H66a6.52,6.52,0,0,1,3.83.88,3.82,3.82,0,0,1,1.54,3.16,4.14,4.14,0,0,1-1.5,3.24,5.53,5.53,0,0,1-3.53.87H64.13Zm-5.4-4.65V54h5.4V43.7h3.5c3.2,0,5.48-.92,7-2.45a9,9,0,0,0,2.29-6.2,8.8,8.8,0,0,0-2.83-6.69c-2-1.79-4.2-2.12-7.31-2.12Z"></path><path class="cls-7" d="M64.13,30.89H66a6.52,6.52,0,0,1,3.83.88,3.82,3.82,0,0,1,1.54,3.16,4.14,4.14,0,0,1-1.5,3.24,5.53,5.53,0,0,1-3.53.87H64.13Zm-5.4-4.65V54h5.4V43.7h3.49c3.21,0,5.49-.92,7-2.45a9,9,0,0,0,2.29-6.2,8.8,8.8,0,0,0-2.83-6.69c-2-1.79-4.2-2.12-7.32-2.12Z"></path></g></g></svg><style>@media (prefers-color-scheme: light) { :root { filter: none; } }
</style></svg>