<svg xmlns="http://www.w3.org/2000/svg" viewBox="0 0 104.73 101.16"><defs><style>.cls-1,.cls-4,.cls-6{fill:none;stroke:#26262a;stroke-miterlimit:22.93;}.cls-1{stroke-width:1.28px;}.cls-2,.cls-7{fill:#ee7200;}.cls-2,.cls-3{fill-rule:evenodd;}.cls-3{fill:#26262a;}.cls-4{stroke-width:1.28px;}.cls-5{fill:#fff;}.cls-6{stroke-width:1.28px;}</style></defs><g id="Layer_2" data-name="Layer 2"><g id="Layer_1-2" data-name="Layer 1"><path class="cls-4" d="M22.55,73.86C11.83,53.28,6.63,40.29,18.73,13c-6.43,7-9.59,16.34-12.1,26.4-3-9-7.82-22.07-5.27-26.49C5.81,5.23,40.59,3.51,59.77,16c-13.31-3.51-26.4-.8-33.14,10.86C19.29,39.6,19.75,60.09,22.55,73.86Z"/><path class="cls-3" d="M22.55,73.86C11.84,53.28,6.63,40.29,18.73,13c-6.43,7-9.59,16.34-12.1,26.4-3-9-7.82-22.07-5.27-26.49C5.81,5.23,40.59,3.51,59.78,16c-13.32-3.52-26.41-.8-33.14,10.86-7.35,12.72-6.89,33.21-4.09,47"/><path class="cls-5" d="M35.05,16.35l-4.19-6.26-1.26.84,2,2.94a4.87,4.87,0,0,0,.66.78L28.15,11.9,27,12.68,31.17,19l1.24-.83-2-3.06a3.87,3.87,0,0,0-.54-.67l4.07,2.74ZM26.74,20.1a23.12,23.12,0,0,0-2-2.49l.82.57c.62.41,1.26.77,1.9,1.14Zm3.91-.7-6.81-3.72-1,1.16,4.4,6.37,1-1.11-.75-1.05,1-1.11,1.12.64ZM27,23.52l-1.15-.78L25,24l-1.4-1,.74-1.1-1.18-.8-.74,1.1-1.35-.91.84-1.25-1.16-.78L19.06,21.8,25.3,26Zm-2,3.12L23.74,26l-.69,1.4-5.49-2.7-.66,1.34,6.76,3.32Zm-3.35,3.09a1.28,1.28,0,0,1,0,1,1.11,1.11,0,0,1-.62.68,3.4,3.4,0,0,1-2-.17,3.15,3.15,0,0,1-1.83-1.32,1.15,1.15,0,0,1,0-.89,1.27,1.27,0,0,1,.59-.67l-1.44-.52a2.09,2.09,0,0,0-.52.81,2.43,2.43,0,0,0,.1,2,4.54,4.54,0,0,0,2.65,2.11,4.13,4.13,0,0,0,3.22.08A2.33,2.33,0,0,0,23,31.31a1.93,1.93,0,0,0,.12-1Z"/></g></g></svg>