<svg xmlns="http://www.w3.org/2000/svg" viewBox="0 0 104.73 100.52"><defs><style>.cls-1{fill:#1a1a18;}.cls-1,.cls-3{fill-rule:evenodd;}.cls-2,.cls-4{fill:none;stroke:#1a1a18;stroke-miterlimit:22.93;}.cls-2{stroke-width:1.28px;}.cls-3,.cls-5{fill:#009ee3;}.cls-4{stroke-width:1.28px;}.cls-6{fill:#fff;}</style></defs><g id="Layer_2" data-name="Layer 2"><g id="Layer_1-2" data-name="Layer 1"><path class="cls-1" d="M94.23,52.88c-13,19.22-21.94,30-51.67,32.33,9.25,2.3,18.94.65,29-1.94C65,90.2,55.85,100.66,50.75,100.52c-8.9-.24-27-30-25.11-52.83,3.25,13.38,11.87,23.6,25.33,24,14.68.4,32.49-9.77,43.26-18.78"/><path class="cls-1" d="M41.86,0c23,2.65,36.73,5.61,52.55,30.9C92.18,21.63,86.23,13.8,79.3,6.09,88.44,8.66,102,12,104.2,16.56c3.9,8-14.15,37.78-35.26,46.67C79.31,54.17,84.39,41.8,78.5,29.69,72.07,16.49,54.83,5.39,41.86,0"/><path class="cls-2" d="M22.55,73.86C11.83,53.28,6.63,40.29,18.73,13c-6.43,7-9.59,16.34-12.1,26.4-3-9-7.82-22.07-5.27-26.49C5.81,5.23,40.59,3.51,59.77,16c-13.31-3.51-26.4-.8-33.13,10.86C19.29,39.6,19.75,60.09,22.55,73.86Z"/><path class="cls-3" d="M22.55,73.86C11.84,53.28,6.63,40.29,18.73,13c-6.43,7-9.59,16.34-12.1,26.4-3-9-7.82-22.07-5.27-26.49C5.81,5.23,40.59,3.51,59.78,16c-13.32-3.52-26.41-.8-33.14,10.86-7.35,12.72-6.89,33.21-4.09,47"/><path class="cls-4" d="M64.82,25.34A21.77,21.77,0,0,0,55,23.15,18.8,18.8,0,0,0,35.51,42.7a18.72,18.72,0,0,0,5.81,14A20.57,20.57,0,0,0,55.39,62a20.81,20.81,0,0,0,9.43-2.28v-10a11.93,11.93,0,0,1-8.09,3.2c-6.14,0-10.61-4.38-10.61-10.36,0-5.31,3.45-10.28,10.28-10.28a11.84,11.84,0,0,1,8.42,3.2Z"/><path class="cls-5" d="M64.82,25.34A21.81,21.81,0,0,0,55,23.15,18.79,18.79,0,0,0,35.51,42.7a18.72,18.72,0,0,0,5.81,14A20.57,20.57,0,0,0,55.39,62a20.81,20.81,0,0,0,9.43-2.28v-10a11.93,11.93,0,0,1-8.09,3.2c-6.15,0-10.61-4.38-10.61-10.36,0-5.31,3.45-10.28,10.28-10.28a11.86,11.86,0,0,1,8.42,3.2Z"/><path class="cls-6" d="M35.05,16.35l-4.19-6.26-1.26.84,2,2.94a4.87,4.87,0,0,0,.66.78L28.15,11.9,27,12.68,31.17,19l1.24-.83-2-3.06a3.87,3.87,0,0,0-.54-.67l4.07,2.74ZM26.74,20.1a23.12,23.12,0,0,0-2-2.49l.82.57c.63.41,1.26.77,1.9,1.14Zm3.91-.7-6.81-3.72-1,1.16,4.4,6.37,1-1.11-.75-1.05,1-1.11,1.13.64ZM27,23.52l-1.15-.78L25,24l-1.4-1,.74-1.1-1.18-.8-.74,1.1-1.35-.91.84-1.25-1.16-.78L19.06,21.8,25.31,26Zm-2,3.12L23.74,26l-.69,1.4-5.49-2.7-.66,1.34,6.76,3.32Zm-3.35,3.09a1.28,1.28,0,0,1,0,1,1.09,1.09,0,0,1-.62.68,3.4,3.4,0,0,1-2-.17,3.15,3.15,0,0,1-1.83-1.32,1.11,1.11,0,0,1,0-.89,1.2,1.2,0,0,1,.58-.67l-1.44-.52a2.09,2.09,0,0,0-.52.81,2.43,2.43,0,0,0,.1,2,4.54,4.54,0,0,0,2.65,2.11,4.13,4.13,0,0,0,3.22.08A2.33,2.33,0,0,0,23,31.31a1.93,1.93,0,0,0,.12-1Z"/><path class="cls-6" d="M87.87,46.2l1.37.19.51-3.8-1.37-.19-.15,1.16-6.11-.82-.2,1.48L88,45Zm-3.8-5.34a1.35,1.35,0,0,1-.42-.87,1.11,1.11,0,0,1,.31-.87,3.31,3.31,0,0,1,1.94-.65,3.1,3.1,0,0,1,2.2.49,1.07,1.07,0,0,1,.38.8,1.17,1.17,0,0,1-.27.84l1.53-.09a2.16,2.16,0,0,0,.16-.95A2.47,2.47,0,0,0,89,37.8a4.57,4.57,0,0,0-3.27-.89,4.09,4.09,0,0,0-3,1.21,2.31,2.31,0,0,0-.57,1.82,2,2,0,0,0,.3,1ZM82,36.32,83.37,36l-.32-1.5,1.66-.35L85,35.47l1.39-.3-.27-1.29,1.59-.34L88,35l1.37-.29-.62-2.93-7.37,1.58Zm5-5.66,1.29-.47L87,26.59l-1.29.48.4,1.09L80.28,30.3l.52,1.4,5.78-2.14Zm-4.84-5.15c-.59.35-2.18,1.2-2.68.36s1-1.83,1.59-2.19,2.18-1.2,2.68-.36S82.74,25.16,82.15,25.51Zm.78,1.38a4.85,4.85,0,0,0,2.09-2,2.36,2.36,0,0,0-2-3.38,4.85,4.85,0,0,0-2.79.87,4.91,4.91,0,0,0-2.08,2,2.36,2.36,0,0,0,2,3.38A4.85,4.85,0,0,0,82.93,26.89Zm-3.22-9.43.18.22a.89.89,0,0,1-.21,1.37A.92.92,0,0,1,78.26,19a1.49,1.49,0,0,1-.15-.2Zm-3.09,6.27,1.82-3.18a2.06,2.06,0,0,0,2.16-.39,2.13,2.13,0,0,0,.85-1.85,2.89,2.89,0,0,0-.75-1.5l-1-1.25-5.83,4.78.94,1.15,2.69-2.19-1.85,3.22Zm-2-8.93L76,13.41l.18.19c.47.48.31.91-.12,1.33s-.94.42-1.41-.07Zm1.24-3.3-5.39,5.27,1,1.07,2.22-2.17c1,1.15,2.27,1.44,3.4.33a2.24,2.24,0,0,0,.7-2.13,2.28,2.28,0,0,0-.71-1.08Z"/><path class="cls-6" d="M57.12,80.6,57,79.21l-1.53.11-.11-1.69,1.32-.09-.1-1.42-1.32.09-.11-1.63,1.5-.1-.1-1.4-3,.21.52,7.52Zm-7-3a1.14,1.14,0,0,1,.66.26,1.08,1.08,0,0,1,.27.8.91.91,0,0,1-1,.94Zm.09-3a.91.91,0,0,1,.65.25,1.13,1.13,0,0,1,0,1.38,1.1,1.1,0,0,1-.66.24Zm-1.46-1.27-.22,7.54,1.58,0a2.41,2.41,0,0,0,1.79-.59,2,2,0,0,0,.61-1.47,2,2,0,0,0-.23-1.07A1.54,1.54,0,0,0,51.5,77a1.49,1.49,0,0,0,.61-.43,1.61,1.61,0,0,0,.38-1.06,2.28,2.28,0,0,0-.57-1.65,2.14,2.14,0,0,0-1.57-.57ZM48,73.2l-1.47-.26-.86,5c-.1.55-.19,1.21-.94,1.09s-.61-.86-.51-1.41l.85-4.94-1.47-.25-1,5.65c-.23,1.31.64,2.07,1.85,2.28a2.26,2.26,0,0,0,2.13-.54,2.18,2.18,0,0,0,.44-1.1Zm-7,6.23.5-1.33-1.46-.55,2.15-5.73-1.39-.53-2.65,7.06Z"/></g></g></svg>