<svg xmlns="http://www.w3.org/2000/svg" viewBox="0 0 202.42 194.83"><defs><style>.cls-1{fill:#fff;stroke:#1d1d1b;stroke-miterlimit:10;stroke-width:0.0px;fill-rule:evenodd;}</style></defs><g id="Layer_2" data-name="Layer 2"><g id="Layer_1-2" data-name="Layer 1"><g id="Layer_2-2" data-name="Layer 2"><g id="Layer_1-2-2" data-name="Layer 1-2"><path class="cls-1" d="M181.79,102.47c-25.21,37.16-42.56,58-100.24,62.5h0c18,4.46,36.75,1.25,56.21-3.74-12.6,13.38-30.42,33.61-40.31,33.35-17.27-.48-52.32-58-48.7-102.14,6.29,25.86,23,45.63,49.13,46.33,28.48.78,63-18.9,83.91-36.3"/><path class="cls-1" d="M80.2.25C124.91,5.37,151.45,11.1,182.13,60c-4.33-18-15.88-33.06-29.3-48,17.73,5,44,11.36,48.3,20.23,7.56,15.48-27.45,73-68.4,90.23h0c20.12-17.52,29.94-41.43,18.54-64.83-12.46-25.57-45.9-47-71.07-57.4"/><path class="cls-1" d="M42.74,143C22,103.25,11.87,78.13,35.33,25.42h0C22.86,39,16.73,57,11.87,76.47,6.06,59.05-3.3,33.8,1.64,25.26,10.28,10.34,77.74,7,115,31.23h0c-25.82-6.8-51.22-1.55-64.28,21C36.43,76.84,37.32,116.42,42.74,143"/></g></g></g></g></svg>