<svg xmlns="http://www.w3.org/2000/svg" viewBox="0 0 104.73 100.52"><defs><style>.cls-1,.cls-6{fill:#26262a;}.cls-1,.cls-3{fill-rule:evenodd;}.cls-2,.cls-4{fill:none;stroke:#26262a;stroke-miterlimit:22.93;}.cls-2{stroke-width:1.28px;}.cls-3,.cls-5{fill:#fff;}.cls-4{stroke-width:1.28px;}</style></defs><g id="Layer_2" data-name="Layer 2"><g id="Layer_1-2" data-name="Layer 1"><path class="cls-1" d="M94.23,52.88c-13,19.22-21.94,30-51.67,32.33,9.25,2.3,18.94.65,29-1.94C65,90.2,55.85,100.66,50.75,100.52c-8.9-.24-27-30-25.11-52.83,3.25,13.38,11.87,23.6,25.33,24,14.68.4,32.49-9.77,43.26-18.78"/><path class="cls-5" d="M57.12,80.6,57,79.21l-1.53.11-.11-1.69,1.32-.09-.1-1.42-1.32.09-.11-1.63,1.5-.1-.1-1.4-3,.21.52,7.52Zm-7-3a1.14,1.14,0,0,1,.66.26,1.08,1.08,0,0,1,.27.8.91.91,0,0,1-1,.94Zm.09-3a.91.91,0,0,1,.65.25,1.13,1.13,0,0,1,0,1.38,1.1,1.1,0,0,1-.66.24Zm-1.46-1.27-.22,7.54,1.58,0a2.41,2.41,0,0,0,1.79-.59,2,2,0,0,0,.61-1.47,2,2,0,0,0-.23-1.07A1.54,1.54,0,0,0,51.5,77a1.49,1.49,0,0,0,.61-.43,1.61,1.61,0,0,0,.38-1.06,2.28,2.28,0,0,0-.57-1.65,2.14,2.14,0,0,0-1.57-.57ZM48,73.2l-1.47-.26-.86,5c-.1.55-.19,1.21-.94,1.09s-.61-.86-.51-1.41l.85-4.94-1.47-.25-1,5.65c-.23,1.31.64,2.07,1.85,2.28a2.26,2.26,0,0,0,2.13-.54,2.18,2.18,0,0,0,.44-1.1Zm-6.94,6.23.49-1.33-1.46-.55,2.15-5.73-1.39-.53-2.65,7.06Z"/></g></g></svg>