<svg xmlns="http://www.w3.org/2000/svg" viewBox="0 0 104.73 100.52"><defs><style>.cls-1,.cls-6{fill:#26262a;}.cls-1,.cls-3{fill-rule:evenodd;}.cls-2,.cls-4{fill:none;stroke:#26262a;stroke-miterlimit:22.93;}.cls-2{stroke-width:1.28px;}.cls-3,.cls-5{fill:#fff;}.cls-4{stroke-width:1.28px;}</style></defs><g id="Layer_2" data-name="Layer 2"><g id="Layer_1-2" data-name="Layer 1"><path class="cls-1" d="M41.86,0c23,2.65,36.73,5.61,52.55,30.9C92.18,21.63,86.23,13.8,79.3,6.09,88.44,8.66,102,12,104.2,16.56c3.9,8-14.15,37.78-35.26,46.67C79.31,54.17,84.39,41.8,78.5,29.69,72.07,16.49,54.83,5.39,41.86,0"/><path class="cls-5" d="M87.87,46.2l1.37.19.51-3.8-1.37-.19-.15,1.16-6.11-.82-.2,1.48L88,45Zm-3.8-5.34a1.35,1.35,0,0,1-.42-.87,1.11,1.11,0,0,1,.31-.87,3.31,3.31,0,0,1,1.94-.65,3.1,3.1,0,0,1,2.2.49,1.07,1.07,0,0,1,.38.8,1.17,1.17,0,0,1-.27.84l1.53-.09a2.16,2.16,0,0,0,.16-.95A2.47,2.47,0,0,0,89,37.8a4.57,4.57,0,0,0-3.27-.89,4.09,4.09,0,0,0-3,1.21,2.31,2.31,0,0,0-.57,1.82,2,2,0,0,0,.3,1ZM82,36.32,83.37,36l-.32-1.5,1.66-.35L85,35.47l1.4-.3-.28-1.29,1.59-.34L88,35l1.37-.29-.62-2.93-7.37,1.58Zm5-5.66,1.29-.47L87,26.59l-1.29.48.4,1.09L80.28,30.3l.52,1.4,5.78-2.14Zm-4.84-5.15c-.59.35-2.18,1.2-2.68.36s1-1.83,1.59-2.19,2.18-1.2,2.68-.36S82.74,25.16,82.15,25.51Zm.78,1.38a4.85,4.85,0,0,0,2.09-2,2.36,2.36,0,0,0-2-3.38,4.85,4.85,0,0,0-2.79.87,4.91,4.91,0,0,0-2.08,2,2.36,2.36,0,0,0,2,3.38A4.85,4.85,0,0,0,82.93,26.89Zm-3.22-9.43.18.22a.89.89,0,0,1-.21,1.37A.92.92,0,0,1,78.26,19a1.49,1.49,0,0,1-.15-.2Zm-3.09,6.27,1.82-3.18a2.06,2.06,0,0,0,2.16-.39,2.13,2.13,0,0,0,.85-1.85,2.89,2.89,0,0,0-.75-1.5l-1-1.25-5.83,4.78.94,1.15,2.69-2.19-1.85,3.22Zm-2-8.93L76,13.41l.18.19c.47.48.31.91-.12,1.33s-.94.42-1.41-.07Zm1.24-3.3-5.39,5.27,1,1.07,2.22-2.17c1,1.15,2.27,1.44,3.4.33a2.24,2.24,0,0,0,.7-2.13,2.28,2.28,0,0,0-.71-1.08Z"/></g></g></svg>