<?xml version="1.0" standalone="no"?>
<!DOCTYPE svg PUBLIC "-//W3C//DTD SVG 20010904//EN"
 "http://www.w3.org/TR/2001/REC-SVG-20010904/DTD/svg10.dtd">
<svg version="1.0" xmlns="http://www.w3.org/2000/svg"
 width="250.000000pt" height="250.000000pt" viewBox="0 0 250.000000 250.000000"
 preserveAspectRatio="xMidYMid meet">

<g transform="translate(0.000000,230.000000) scale(0.100000,-0.100000)"
fill="#3e8024" stroke="none">
<path d="M131 1965 c-53 -17 -88 -48 -112 -100 -18 -38 -19 -85 -19 -874 0
-830 0 -835 21 -879 41 -84 160 -128 239 -87 30 15 201 131 539 363 57 40 109
72 115 72 7 0 11 -51 11 -158 0 -171 5 -190 62 -244 54 -51 127 -62 200 -29
23 11 113 69 200 129 87 60 345 236 573 391 228 156 428 295 444 310 38 35 56
80 56 138 0 85 -25 113 -215 242 -181 124 -954 650 -1019 695 -82 56 -160 55
-235 -1 -44 -34 -61 -78 -61 -162 0 -64 2 -72 25 -87 53 -34 95 6 95 90 0 47
22 76 58 76 24 0 45 -14 725 -479 268 -183 492 -342 498 -353 27 -51 39 -41
-551 -441 -146 -99 -342 -233 -435 -298 -94 -64 -187 -125 -207 -135 -35 -16
-38 -16 -62 0 l-26 16 0 200 0 199 203 137 c111 75 213 146 225 158 79 70 82
197 6 269 -54 50 -1218 837 -1254 847 -43 12 -44 12 -99 -5z m678 -525 c404
-276 596 -412 602 -429 5 -13 7 -31 4 -41 -5 -15 -312 -232 -349 -246 -14 -5
-16 8 -16 108 0 133 -10 158 -64 158 -57 0 -61 -14 -61 -199 l1 -167 -71 -48
c-250 -173 -629 -428 -650 -438 -19 -9 -29 -7 -50 6 l-25 16 0 830 c0 759 1
830 17 845 9 10 27 15 43 13 14 -2 293 -186 619 -408z"/>
</g>
</svg>
