<?xml version="1.0" encoding="UTF-8"?>
<!DOCTYPE svg PUBLIC "-//W3C//DTD SVG 1.1//EN" "http://www.w3.org/Graphics/SVG/1.1/DTD/svg11.dtd">
<svg xmlns="http://www.w3.org/2000/svg" version="1.1" width="300.000000pt" height="300.000000pt" viewBox="0 0 200.000000 200.000000" style="shape-rendering:geometricPrecision; text-rendering:geometricPrecision; image-rendering:optimizeQuality; fill-rule:evenodd; clip-rule:evenodd" xmlns:xlink="http://www.w3.org/1999/xlink">
<g><path style="opacity:0.979" fill="#fff" d="M 14.5,-0.5 C 25.8333,-0.5 37.1667,-0.5 48.5,-0.5C 56.5863,2.42306 61.753,8.08973 64,16.5C 71.8036,57.3605 55.3036,73.1938 14.5,64C 7.40736,61.7368 2.40736,57.2368 -0.5,50.5C -0.5,38.1667 -0.5,25.8333 -0.5,13.5C 2.58628,6.74591 7.58628,2.07924 14.5,-0.5 Z"/></g>
<g><path style="opacity:0.975" fill="#fff" d="M 82.5,-0.5 C 93.8333,-0.5 105.167,-0.5 116.5,-0.5C 130.383,5.76745 135.716,16.6008 132.5,32C 134.988,56.1783 124.155,67.0116 100,64.5C 93.1048,64.5848 86.2714,64.0848 79.5,63C 73.9389,60.4383 70.1055,56.2716 68,50.5C 67.3333,38.1667 67.3333,25.8333 68,13.5C 70.774,6.55693 75.6073,1.89027 82.5,-0.5 Z"/></g>
<g><path style="opacity:0.981" fill="#fff" d="M 150.5,-0.5 C 161.833,-0.5 173.167,-0.5 184.5,-0.5C 198.379,5.75945 203.712,16.5928 200.5,32C 202.885,56.4483 191.885,67.2817 167.5,64.5C 160.757,64.607 154.09,64.107 147.5,63C 141.939,60.4383 138.106,56.2716 136,50.5C 135.333,38.1667 135.333,25.8333 136,13.5C 138.749,6.58323 143.582,1.91656 150.5,-0.5 Z"/></g>
<g><path style="opacity:0.988" fill="#fff" d="M 34.5,199.5 C 32.5,199.5 30.5,199.5 28.5,199.5C 20.6215,197.457 15.4548,192.457 13,184.5C 12.3333,150.833 12.3333,117.167 13,83.5C 19.3118,70.505 29.1451,67.005 42.5,73C 45.7621,75.592 48.2621,78.7587 50,82.5C 50.6667,117.167 50.6667,151.833 50,186.5C 46.8592,193.311 41.6925,197.644 34.5,199.5 Z"/></g>
<g><path style="opacity:0.98" fill="#fff" d="M 103.5,199.5 C 101.167,199.5 98.8333,199.5 96.5,199.5C 89.0191,197.525 83.8524,192.858 81,185.5C 80.3333,151.833 80.3333,118.167 81,84.5C 85.2471,72.2979 93.7471,67.7979 106.5,71C 112.088,73.5864 115.921,77.7531 118,83.5C 118.667,117.833 118.667,152.167 118,186.5C 115.093,193.029 110.259,197.362 103.5,199.5 Z"/></g>
<g><path style="opacity:0.969" fill="#fff" d="M 171.5,199.5 C 169.167,199.5 166.833,199.5 164.5,199.5C 157.019,197.525 151.852,192.858 149,185.5C 148.333,151.5 148.333,117.5 149,83.5C 155.285,70.5135 165.118,67.0135 178.5,73C 183.815,76.7954 186.648,81.962 187,88.5C 187.667,119.167 187.667,149.833 187,180.5C 186.063,190.415 180.896,196.748 171.5,199.5 Z"/></g>
</svg>
