<?xml version="1.0" encoding="UTF-8"?>
<!DOCTYPE svg PUBLIC "-//W3C//DTD SVG 1.1//EN" "http://www.w3.org/Graphics/SVG/1.1/DTD/svg11.dtd">
<svg xmlns="http://www.w3.org/2000/svg" version="1.1" width="300px" height="300px" style="shape-rendering:geometricPrecision; text-rendering:geometricPrecision; image-rendering:optimizeQuality; fill-rule:evenodd; clip-rule:evenodd" xmlns:xlink="http://www.w3.org/1999/xlink">
<g><path style="opacity:0.936" fill="#fff" d="M 123.5,-0.5 C 123.833,-0.5 124.167,-0.5 124.5,-0.5C 127.273,0.657188 130.273,1.32385 133.5,1.5C 132.643,8.93396 131.143,16.2673 129,23.5C 128.333,25.8333 128.333,28.1667 129,30.5C 133.667,37.8333 138.333,45.1667 143,52.5C 147.918,44.9999 152.584,37.3333 157,29.5C 157.667,27.5 157.667,25.5 157,23.5C 155.081,16.6554 153.248,9.82202 151.5,3C 154.982,0.751475 158.649,0.251475 162.5,1.5C 163.902,5.53876 165.402,9.53876 167,13.5C 168.752,10.328 170.752,7.32797 173,4.5C 176.216,6.19333 179.383,8.02666 182.5,10C 179.748,13.3216 178.081,16.8216 177.5,20.5C 181.996,18.4957 186.663,17.6624 191.5,18C 193.289,21.2491 193.622,24.5825 192.5,28C 184.13,29.8425 175.797,31.8425 167.5,34C 162.707,41.7507 158.041,49.584 153.5,57.5C 162.482,58.6653 171.482,58.832 180.5,58C 187.317,52.0172 193.984,45.8505 200.5,39.5C 203.973,41.1397 206.64,43.6397 208.5,47C 204.833,50.6667 201.167,54.3333 197.5,58C 201.821,58.499 206.154,58.6657 210.5,58.5C 210.5,61.8333 210.5,65.1667 210.5,68.5C 206.154,68.3343 201.821,68.501 197.5,69C 201.167,72.6667 204.833,76.3333 208.5,80C 206.64,83.3603 203.973,85.8603 200.5,87.5C 193.988,81.4874 187.654,75.3207 181.5,69C 172.149,68.1679 162.816,68.3346 153.5,69.5C 157.916,77.3333 162.582,84.9999 167.5,92.5C 175.766,94.8542 184.099,97.0209 192.5,99C 193.622,102.418 193.289,105.751 191.5,109C 186.663,109.338 181.996,108.504 177.5,106.5C 178.081,110.178 179.748,113.678 182.5,117C 179.383,118.973 176.216,120.807 173,122.5C 170.752,119.672 168.752,116.672 167,113.5C 165.268,117.363 163.934,121.363 163,125.5C 159.011,126.81 155.177,126.31 151.5,124C 153.248,117.178 155.081,110.345 157,103.5C 157.667,101.167 157.667,98.8333 157,96.5C 152.333,89.1667 147.667,81.8333 143,74.5C 138.333,81.8333 133.667,89.1667 129,96.5C 128.333,98.8333 128.333,101.167 129,103.5C 131.14,110.722 132.64,118.055 133.5,125.5C 130.183,126.221 126.849,126.388 123.5,126C 122.079,121.826 120.579,117.659 119,113.5C 116.752,116.328 114.752,119.328 113,122.5C 109.784,120.807 106.617,118.973 103.5,117C 105.625,113.918 107.625,110.751 109.5,107.5C 109,107.167 108.5,106.833 108,106.5C 103.647,108.383 99.1475,109.216 94.5,109C 93.2494,106.075 92.2494,103.075 91.5,100C 100.119,97.542 108.785,95.2086 117.5,93C 122.697,85.3006 127.697,77.4673 132.5,69.5C 123.184,68.3346 113.851,68.1679 104.5,69C 98.2841,75.7183 91.6175,81.8849 84.5,87.5C 81.6443,85.478 79.311,82.978 77.5,80C 80.5,75.6667 84.1667,72 88.5,69C 84.1794,68.501 79.8461,68.3343 75.5,68.5C 75.5,65.1667 75.5,61.8333 75.5,58.5C 79.8461,58.6657 84.1794,58.499 88.5,58C 84.3114,54.5923 80.6447,50.7589 77.5,46.5C 79.522,43.6443 82.022,41.311 85,39.5C 91.8552,45.3569 98.3552,51.5235 104.5,58C 113.851,58.8321 123.184,58.6654 132.5,57.5C 128.124,49.2431 123.124,41.4097 117.5,34C 108.833,31.6667 100.167,29.3333 91.5,27C 92.2494,23.925 93.2494,20.925 94.5,18C 99.3373,17.6624 104.004,18.4957 108.5,20.5C 107.919,16.8216 106.252,13.3216 103.5,10C 106.5,8.16667 109.5,6.33333 112.5,4.5C 114.776,7.95094 117.276,11.2843 120,14.5C 121.106,9.4668 122.273,4.4668 123.5,-0.5 Z"/></g>
<g><path style="opacity:0.897" fill="#fff" d="M 52.5,86.5 C 55.8333,86.5 59.1667,86.5 62.5,86.5C 62.5,91.8333 62.5,97.1667 62.5,102.5C 59.1667,102.5 55.8333,102.5 52.5,102.5C 52.5,97.1667 52.5,91.8333 52.5,86.5 Z"/></g>
<g><path style="opacity:0.869" fill="#fff" d="M 21.5,102.5 C 25.6321,105.132 29.2987,108.299 32.5,112C 30.7019,114.966 28.3686,117.466 25.5,119.5C 21.9506,116.448 18.6173,113.281 15.5,110C 17.3198,107.348 19.3198,104.848 21.5,102.5 Z"/></g>
<g><path style="opacity:0.931" fill="#fff" d="M 256.5,105.5 C 264.734,104.547 272.401,106.047 279.5,110C 289.29,121.279 288.623,131.945 277.5,142C 276.167,142.667 274.833,143.333 273.5,144C 242.502,144.5 211.502,144.667 180.5,144.5C 180.5,141.167 180.5,137.833 180.5,134.5C 209.502,134.667 238.502,134.5 267.5,134C 274.388,131.724 276.555,127.224 274,120.5C 272.681,118.513 270.848,117.346 268.5,117C 264.514,116.501 260.514,116.334 256.5,116.5C 256.5,112.833 256.5,109.167 256.5,105.5 Z"/></g>
<g><path style="opacity:0.923" fill="#fff" d="M 50.5,110.5 C 80.3993,110.23 93.566,124.896 90,154.5C 79.0505,177.707 61.8838,183.874 38.5,173C 22.8007,160.362 19.3007,144.862 28,126.5C 33.5862,118.306 41.0862,112.973 50.5,110.5 Z M 51.5,121.5 C 72.9181,121.08 82.0848,131.414 79,152.5C 70.6789,167.541 58.8456,171.041 43.5,163C 33.7549,153.949 31.9216,143.449 38,131.5C 41.5795,126.731 46.0795,123.397 51.5,121.5 Z"/></g>
<g><path style="opacity:0.903" fill="#fff" d="M 156.5,134.5 C 161.5,134.5 166.5,134.5 171.5,134.5C 171.5,137.833 171.5,141.167 171.5,144.5C 166.5,144.5 161.5,144.5 156.5,144.5C 156.5,141.167 156.5,137.833 156.5,134.5 Z"/></g>
<g><path style="opacity:0.909" fill="#fff" d="M -0.5,139.5 C 4.83333,139.5 10.1667,139.5 15.5,139.5C 15.5,142.833 15.5,146.167 15.5,149.5C 10.1667,149.5 4.83333,149.5 -0.5,149.5C -0.5,146.167 -0.5,142.833 -0.5,139.5 Z"/></g>
<g><path style="opacity:0.909" fill="#fff" d="M 99.5,139.5 C 104.5,139.5 109.5,139.5 114.5,139.5C 114.5,142.833 114.5,146.167 114.5,149.5C 109.5,149.5 104.5,149.5 99.5,149.5C 99.5,146.167 99.5,142.833 99.5,139.5 Z"/></g>
<g><path style="opacity:0.918" fill="#fff" d="M 194.5,153.5 C 214.169,153.333 233.836,153.5 253.5,154C 266.306,159.789 270.139,169.289 265,182.5C 262.16,188.004 257.66,191.171 251.5,192C 245.175,192.5 238.842,192.666 232.5,192.5C 232.5,188.833 232.5,185.167 232.5,181.5C 239.284,181.92 245.95,181.42 252.5,180C 258.205,174.186 257.538,169.186 250.5,165C 231.902,163.539 213.235,163.039 194.5,163.5C 194.5,160.167 194.5,156.833 194.5,153.5 Z"/></g>
<g><path style="opacity:0.916" fill="#fff" d="M 133.5,158.5 C 154.739,155.366 169.906,163.366 179,182.5C 180.542,187.045 181.376,191.711 181.5,196.5C 199.198,197.697 208.864,207.197 210.5,225C 209.38,240.446 201.38,250.113 186.5,254C 157.5,254.667 128.5,254.667 99.5,254C 78.7755,247.389 71.6088,233.555 78,212.5C 83.6932,201.975 92.5265,196.641 104.5,196.5C 105.506,177.13 115.172,164.463 133.5,158.5 Z M 138.5,168.5 C 161.136,169.3 171.636,180.967 170,203.5C 168.278,208.612 165.778,213.279 162.5,217.5C 164.316,219.817 166.316,221.984 168.5,224C 170.387,224.163 171.887,223.329 173,221.5C 176.277,216.604 179.277,211.604 182,206.5C 197.71,210.918 202.376,220.584 196,235.5C 193.072,239.381 189.239,241.881 184.5,243C 156.833,243.667 129.167,243.667 101.5,243C 89.0689,239.31 84.5689,231.144 88,218.5C 94.4855,207.003 103.652,204.169 115.5,210C 120.344,214.024 123.01,219.19 123.5,225.5C 126.833,225.5 130.167,225.5 133.5,225.5C 134.242,216.487 131.242,208.987 124.5,203C 121.267,200.559 117.934,198.392 114.5,196.5C 116.466,181.875 124.466,172.542 138.5,168.5 Z"/></g>
<g><path style="opacity:0.873" fill="#fff" d="M 25.5,168.5 C 28.287,170.72 30.6203,173.386 32.5,176.5C 29.5,180.167 26.1667,183.5 22.5,186.5C 19.6314,184.466 17.2981,181.966 15.5,179C 18.9693,175.696 22.3026,172.196 25.5,168.5 Z"/></g>
<g><path style="opacity:0.867" fill="#fff" d="M 88.5,168.5 C 92.479,171.812 96.1456,175.479 99.5,179.5C 96.8494,181.65 94.3494,183.983 92,186.5C 88.625,182.956 85.125,179.623 81.5,176.5C 83.8558,173.814 86.1891,171.147 88.5,168.5 Z"/></g>
<g><path style="opacity:0.904" fill="#fff" d="M 52.5,186.5 C 55.8333,186.5 59.1667,186.5 62.5,186.5C 62.5,191.5 62.5,196.5 62.5,201.5C 59.1667,201.5 55.8333,201.5 52.5,201.5C 52.5,196.5 52.5,191.5 52.5,186.5 Z"/></g>
<g><path style="opacity:0.904" fill="#fff" d="M 95.5,290.5 C 94.5,290.5 93.5,290.5 92.5,290.5C 90.8729,288.37 89.0396,286.37 87,284.5C 86.3333,283.833 86.3333,283.167 87,282.5C 94.7088,274.456 102.709,266.79 111,259.5C 113.966,261.298 116.466,263.631 118.5,266.5C 110.812,274.521 103.145,282.521 95.5,290.5 Z"/></g>
<g><path style="opacity:0.902" fill="#fff" d="M 128.5,290.5 C 127.5,290.5 126.5,290.5 125.5,290.5C 124.207,288.704 122.707,287.037 121,285.5C 120.333,284.5 120.333,283.5 121,282.5C 128.012,274.154 135.679,266.488 144,259.5C 146.966,261.298 149.466,263.631 151.5,266.5C 143.812,274.521 136.145,282.521 128.5,290.5 Z"/></g>
<g><path style="opacity:0.897" fill="#fff" d="M 161.5,290.5 C 160.5,290.5 159.5,290.5 158.5,290.5C 156.669,287.882 155.169,285.215 154,282.5C 161.681,274.652 169.514,266.985 177.5,259.5C 180.601,261.098 183.268,263.265 185.5,266C 177.298,274.035 169.298,282.202 161.5,290.5 Z"/></g>
</svg>
