<?xml version="1.0" standalone="no"?>
<!DOCTYPE svg PUBLIC "-//W3C//DTD SVG 20010904//EN"
 "http://www.w3.org/TR/2001/REC-SVG-20010904/DTD/svg10.dtd">
<svg version="1.0" xmlns="http://www.w3.org/2000/svg"
 width="300.000000pt" height="300.000000pt" viewBox="0 0 250.000000 200.000000"
 preserveAspectRatio="xMidYMid meet">

<g transform="translate(-260.000000,340.000000) scale(0.100000,-0.100000)"
fill="#fff" stroke="none">
<path d="M3634 3399 c-451 -94 -790 -454 -859 -909 -19 -120 -19 -200 0 -322
69 -462 420 -826 878 -913 102 -19 302 -19 404 0 557 106 945 625 885 1183
-35 316 -185 580 -437 769 -242 181 -575 255 -871 192z m362 -80 c191 -26 417
-134 532 -251 l32 -34 -114 -113 -113 -113 -31 54 c-65 115 -170 201 -291 238
-92 29 -227 27 -318 -3 -237 -81 -383 -318 -345 -561 12 -80 48 -171 87 -222
l24 -31 -39 -38 c-30 -29 -42 -36 -52 -27 -8 6 -35 16 -61 21 -173 39 -323
-133 -263 -301 31 -88 118 -149 212 -150 l56 -1 -82 -82 c-95 -96 -79 -98
-176 27 -128 166 -196 371 -196 593 0 269 89 495 272 688 227 240 542 351 866
306z m692 -438 c222 -336 222 -769 -1 -1103 -136 -204 -338 -350 -575 -416
-86 -23 -115 -26 -252 -27 -168 0 -243 13 -368 62 -70 28 -209 106 -252 142
l-25 20 700 701 c385 385 705 700 710 700 6 0 34 -36 63 -79z m-833 -203 l80
-131 3 131 3 132 39 0 40 0 0 -201 0 -200 -42 3 -42 3 -81 129 -80 129 -3
-132 -3 -131 -39 0 -40 0 0 200 0 200 43 0 42 0 80 -132z m-310 -478 c4 -6 31
-23 61 -38 l54 -27 -85 -85 -85 -85 0 48 c0 25 -7 65 -16 87 l-17 41 34 35
c35 36 44 40 54 24z m-335 -111 l0 -39 50 0 50 0 0 40 c0 36 3 40 25 40 l25 0
0 -115 0 -115 -25 0 c-23 0 -25 3 -25 50 l0 50 -50 0 -50 0 0 -50 c0 -47 -2
-50 -25 -50 l-25 0 0 113 c0 63 3 116 6 119 3 3 14 4 25 1 15 -4 19 -14 19
-44z"/>
<path d="M4088 2363 l-278 -278 0 -48 c0 -39 -3 -47 -18 -47 -25 0 -92 -46
-121 -82 -87 -108 -44 -285 82 -344 125 -58 270 -2 318 123 15 40 13 132 -5
174 -19 45 -97 118 -136 126 -29 5 -30 8 -30 59 0 46 3 54 19 54 38 0 147 40
205 75 l59 36 31 -28 c17 -16 33 -29 35 -31 3 -1 -3 -25 -13 -53 -56 -154 52
-311 214 -311 123 0 216 87 227 211 5 52 2 68 -22 116 -47 98 -148 148 -249
125 -27 -6 -57 -15 -67 -20 -14 -8 -25 -3 -52 27 l-35 37 23 30 c56 75 99 209
93 287 l-3 39 -277 -277z m314 -275 c3 -41 4 -42 38 -43 53 -2 60 3 60 46 0
35 3 39 25 39 l25 0 0 -115 0 -115 -25 0 c-23 0 -25 3 -25 50 l0 50 -50 0 -50
0 0 -50 c0 -47 -2 -50 -25 -50 l-25 0 0 115 0 115 24 0 c22 0 25 -5 28 -42z
m-592 -243 l0 -45 44 0 45 0 3 43 c3 37 6 42 28 42 l25 0 3 -117 3 -118 -31 0
c-29 0 -30 1 -30 50 l0 50 -45 0 -45 0 0 -50 c0 -49 -1 -50 -30 -50 l-30 0 0
113 c0 63 3 117 7 120 3 4 17 7 30 7 21 0 23 -5 23 -45z"/>
</g>
</svg>
