<?xml version="1.0" encoding="UTF-8"?>
<!DOCTYPE svg PUBLIC "-//W3C//DTD SVG 1.1//EN" "http://www.w3.org/Graphics/SVG/1.1/DTD/svg11.dtd">
<svg xmlns="http://www.w3.org/2000/svg" version="1.1" width="300.000000pt" height="300.000000pt" viewBox="0 0 300.000000 300.000000" style="shape-rendering:geometricPrecision; text-rendering:geometricPrecision; image-rendering:optimizeQuality; fill-rule:evenodd; clip-rule:evenodd" xmlns:xlink="http://www.w3.org/1999/xlink">
<g><path style="opacity:0.961" fill="#fff" d="M 140.5,-0.5 C 145.167,-0.5 149.833,-0.5 154.5,-0.5C 204.293,4.14125 243.126,27.1412 271,68.5C 295.091,110.326 299.091,153.993 283,199.5C 260.119,252.88 219.952,283.88 162.5,292.5C 151.5,292.5 140.5,292.5 129.5,292.5C 62.372,281.211 20.2053,242.544 3,176.5C 1.45055,168.071 0.283882,159.737 -0.5,151.5C -0.5,147.833 -0.5,144.167 -0.5,140.5C 4.62992,81.0685 33.9633,38.2351 87.5,12C 104.628,4.94584 122.294,0.779174 140.5,-0.5 Z M 136.5,23.5 C 168.879,21.5848 197.546,30.7514 222.5,51C 205.041,69.4595 187.208,87.6261 169,105.5C 163.542,102.514 157.709,100.847 151.5,100.5C 151.169,93.1365 151.503,85.8032 152.5,78.5C 169.369,71.7456 174.536,59.7456 168,42.5C 160.106,31.4241 149.606,27.9241 136.5,32C 123.252,39.7412 119.085,50.9079 124,65.5C 127.593,72.877 133.426,77.2103 141.5,78.5C 141.666,85.5079 141.5,92.5079 141,99.5C 132.295,100.79 124.462,104.124 117.5,109.5C 111.5,105.5 106.5,100.5 102.5,94.5C 108.94,81.5319 106.606,70.3652 95.5,61C 82.3822,54.2705 70.8822,56.4372 61,67.5C 53.2163,84.1497 57.383,96.6497 73.5,105C 80.8815,107.398 87.8815,106.565 94.5,102.5C 99.4852,106.985 104.319,111.651 109,116.5C 107.196,120.388 105.196,124.388 103,128.5C 101.369,132.688 100.536,137.021 100.5,141.5C 93.4921,141.666 86.4921,141.5 79.5,141C 71.7004,122.621 58.7004,117.621 40.5,126C 30.186,134.929 27.686,145.762 33,158.5C 40.7949,169.802 51.2949,173.302 64.5,169C 72.1456,165.538 76.8123,159.705 78.5,151.5C 85.8333,151.5 93.1667,151.5 100.5,151.5C 100.847,157.709 102.514,163.542 105.5,169C 87.3333,187.167 69.1667,205.333 51,223.5C 20.7015,182.816 15.7015,139.15 36,92.5C 57.6689,52.2502 91.1689,29.2502 136.5,23.5 Z M 136.5,43.5 C 137.833,43.5 139.167,43.5 140.5,43.5C 140.5,46.5 140.5,49.5 140.5,52.5C 144.167,52.5 147.833,52.5 151.5,52.5C 151.5,49.5 151.5,46.5 151.5,43.5C 153.199,43.3398 154.866,43.5065 156.5,44C 155.519,51.4129 155.186,58.9129 155.5,66.5C 154.167,66.5 152.833,66.5 151.5,66.5C 151.5,62.8333 151.5,59.1667 151.5,55.5C 148.15,55.335 144.817,55.5017 141.5,56C 140.544,59.3936 140.211,62.8936 140.5,66.5C 139.167,66.5 137.833,66.5 136.5,66.5C 136.5,58.8333 136.5,51.1667 136.5,43.5 Z M 136.5,175.5 C 134.523,177.814 132.523,180.147 130.5,182.5C 148.541,190.369 164.375,187.036 178,172.5C 187.035,159.549 189.202,145.549 184.5,130.5C 183.5,130.5 182.5,130.5 181.5,130.5C 201.327,110.506 220.993,90.3397 240.5,70C 241.449,69.3828 242.282,69.5494 243,70.5C 274.837,115.406 277.504,162.073 251,210.5C 226.147,247.77 191.147,267.437 146,269.5C 117.41,268.639 91.9098,259.472 69.5,242C 91.0569,218.943 113.39,196.776 136.5,175.5 Z M 71.5,70.5 C 73.1667,70.5 74.8333,70.5 76.5,70.5C 76.5,73.5 76.5,76.5 76.5,79.5C 80.1667,79.5 83.8333,79.5 87.5,79.5C 87.5,76.5 87.5,73.5 87.5,70.5C 88.8333,70.5 90.1667,70.5 91.5,70.5C 91.5,77.8333 91.5,85.1667 91.5,92.5C 90.1667,92.5 88.8333,92.5 87.5,92.5C 86.9492,89.1933 86.6159,85.8599 86.5,82.5C 83.1667,82.5 79.8333,82.5 76.5,82.5C 76.5,86.1667 76.5,89.8333 76.5,93.5C 74.8333,93.5 73.1667,93.5 71.5,93.5C 71.5,85.8333 71.5,78.1667 71.5,70.5 Z M 175.5,136.5 C 172.204,140.298 168.704,143.964 165,147.5C 164.5,153.825 164.334,160.158 164.5,166.5C 161.482,166.665 158.482,166.498 155.5,166C 154.349,163.8 152.682,162.3 150.5,161.5C 146.708,153.202 141.875,145.535 136,138.5C 135.5,148.828 135.334,159.161 135.5,169.5C 132.167,169.5 128.833,169.5 125.5,169.5C 125.5,153.833 125.5,138.167 125.5,122.5C 128.85,122.335 132.183,122.502 135.5,123C 142.667,133.5 149.833,144 157,154.5C 157.5,143.839 157.667,133.172 157.5,122.5C 160.5,122.5 163.5,122.5 166.5,122.5C 166.789,129.178 167.289,135.844 168,142.5C 170.106,139.882 172.606,137.882 175.5,136.5 Z M 45.5,134.5 C 46.8333,134.5 48.1667,134.5 49.5,134.5C 49.5,137.5 49.5,140.5 49.5,143.5C 53.1667,143.5 56.8333,143.5 60.5,143.5C 60.5,140.5 60.5,137.5 60.5,134.5C 61.8333,134.5 63.1667,134.5 64.5,134.5C 64.5,142.167 64.5,149.833 64.5,157.5C 63.1667,157.5 61.8333,157.5 60.5,157.5C 60.5,154.167 60.5,150.833 60.5,147.5C 56.8333,147.5 53.1667,147.5 49.5,147.5C 49.5,150.833 49.5,154.167 49.5,157.5C 48.1667,157.5 46.8333,157.5 45.5,157.5C 45.5,149.833 45.5,142.167 45.5,134.5 Z M 278.5,141.5 C 281.012,142.216 281.012,143.216 278.5,144.5C 277.833,147.5 277.167,150.5 276.5,153.5C 273.665,148.998 274.332,144.998 278.5,141.5 Z M 224.5,147.5 C 227.719,148.021 228.719,149.688 227.5,152.5C 225.775,151.985 224.108,151.318 222.5,150.5C 223.193,149.482 223.859,148.482 224.5,147.5 Z M 150.5,161.5 C 147.833,164.833 144.833,167.833 141.5,170.5C 143.5,166.5 146.5,163.5 150.5,161.5 Z M 215.5,190.5 C 218.775,190.233 219.608,191.233 218,193.5C 216.955,192.627 216.122,191.627 215.5,190.5 Z M 176.5,216.5 C 180.876,220.122 183.043,224.789 183,230.5C 181.413,231.727 180.079,231.394 179,229.5C 177.226,226.285 175.726,222.952 174.5,219.5C 175.193,218.482 175.859,217.482 176.5,216.5 Z M 113.5,222.5 C 114.844,224.185 114.677,225.852 113,227.5C 112.5,227 112,226.5 111.5,226C 112.823,225.184 113.489,224.017 113.5,222.5 Z"/></g>
<g><path style="opacity:0.836" fill="#fff" d="M 231.5,103.5 C 232.75,103.577 233.583,104.244 234,105.5C 235.881,109.307 237.047,113.307 237.5,117.5C 230.236,119.866 223.07,122.533 216,125.5C 214.5,121.667 213,117.833 211.5,114C 212.385,111.843 214.052,111.01 216.5,111.5C 216.755,114.016 217.589,116.35 219,118.5C 220.255,117.789 221.421,116.956 222.5,116C 220.731,113.731 220.065,111.398 220.5,109C 221.833,108.333 223.167,108.333 224.5,109C 225.542,110.918 226.708,112.751 228,114.5C 229.067,113.809 230.234,113.309 231.5,113C 230.407,110.557 229.407,108.057 228.5,105.5C 229.602,104.824 230.602,104.158 231.5,103.5 Z"/></g>
<g><path style="opacity:0.831" fill="#fff" d="M 236.5,122.5 C 237.822,122.33 238.989,122.663 240,123.5C 241.05,127.803 241.884,132.137 242.5,136.5C 234.5,137.833 226.5,139.167 218.5,140.5C 217.963,135.814 217.296,131.147 216.5,126.5C 218.167,126.5 219.833,126.5 221.5,126.5C 221.678,129.216 222.178,131.883 223,134.5C 224.011,133.663 225.178,133.33 226.5,133.5C 226.425,130.794 226.092,128.127 225.5,125.5C 227.167,125.5 228.833,125.5 230.5,125.5C 230.993,127.806 231.326,130.139 231.5,132.5C 233.714,132.709 235.381,131.876 236.5,130C 235.215,127.453 235.215,124.953 236.5,122.5 Z"/></g>
<g><path style="opacity:0.944" fill="#fff" d="M 181.5,130.5 C 182.5,130.5 183.5,130.5 184.5,130.5C 189.202,145.549 187.035,159.549 178,172.5C 164.375,187.036 148.541,190.369 130.5,182.5C 132.523,180.147 134.523,177.814 136.5,175.5C 137.167,175.5 137.5,175.167 137.5,174.5C 138.167,174.5 138.5,174.167 138.5,173.5C 139.167,173.5 139.5,173.167 139.5,172.5C 140.167,172.5 140.5,172.167 140.5,171.5C 141.167,171.5 141.5,171.167 141.5,170.5C 144.833,167.833 147.833,164.833 150.5,161.5C 152.682,162.3 154.349,163.8 155.5,166C 158.482,166.498 161.482,166.665 164.5,166.5C 164.334,160.158 164.5,153.825 165,147.5C 168.704,143.964 172.204,140.298 175.5,136.5C 176.167,136.5 176.5,136.167 176.5,135.5C 177.167,135.5 177.5,135.167 177.5,134.5C 178.167,134.5 178.5,134.167 178.5,133.5C 179.167,133.5 179.5,133.167 179.5,132.5C 180.167,132.5 180.5,132.167 180.5,131.5C 181.167,131.5 181.5,131.167 181.5,130.5 Z"/></g>
<g><path style="opacity:0.877" fill="#fff" d="M 223.5,141.5 C 226.374,141.623 228.874,142.623 231,144.5C 232.785,143.76 234.618,143.093 236.5,142.5C 238.326,142.92 240.326,142.92 242.5,142.5C 242.5,144.5 242.5,146.5 242.5,148.5C 239.428,148.183 236.428,148.516 233.5,149.5C 233.167,150.167 232.833,150.833 232.5,151.5C 235.107,152.318 237.774,152.818 240.5,153C 241.406,154.699 241.739,156.533 241.5,158.5C 233.781,158.44 226.115,157.773 218.5,156.5C 218.167,155.833 217.833,155.167 217.5,154.5C 218.244,151.557 218.744,148.557 219,145.5C 219.907,143.391 221.407,142.058 223.5,141.5 Z M 224.5,147.5 C 223.859,148.482 223.193,149.482 222.5,150.5C 224.108,151.318 225.775,151.985 227.5,152.5C 228.719,149.688 227.719,148.021 224.5,147.5 Z"/></g>
<g><path style="opacity:0.837" fill="#fff" d="M 217.5,158.5 C 219.484,158.383 221.15,159.05 222.5,160.5C 221.833,162.5 221.167,164.5 220.5,166.5C 221.328,167.415 222.328,168.081 223.5,168.5C 224.873,166.51 225.873,164.343 226.5,162C 228.289,161.48 229.956,161.813 231.5,163C 230.446,165.382 229.779,167.882 229.5,170.5C 232.216,170.678 234.883,171.178 237.5,172C 238.138,173.707 238.138,175.54 237.5,177.5C 230.023,176.297 222.69,174.464 215.5,172C 214.978,171.439 214.645,170.772 214.5,170C 215.609,166.176 216.609,162.343 217.5,158.5 Z"/></g>
<g><path style="opacity:0.845" fill="#fff" d="M 208.5,182.5 C 216.652,184.27 224.318,187.103 231.5,191C 230.542,194.312 228.542,195.145 225.5,193.5C 221.878,195.688 221.545,198.354 224.5,201.5C 224.16,204.018 222.826,205.185 220.5,205C 215.667,199.5 210.833,194 206,188.5C 205.972,186.213 206.805,184.213 208.5,182.5 Z M 215.5,190.5 C 216.122,191.627 216.955,192.627 218,193.5C 219.608,191.233 218.775,190.233 215.5,190.5 Z"/></g>
<g><path style="opacity:0.828" fill="#fff" d="M 200.5,193.5 C 201.922,193.709 203.255,194.209 204.5,195C 209,199.5 213.5,204 218,208.5C 217.95,210.752 216.784,212.418 214.5,213.5C 209.816,207.982 204.649,202.982 199,198.5C 198.387,196.505 198.887,194.838 200.5,193.5 Z"/></g>
<g><path style="opacity:0.849" fill="#fff" d="M 197.5,211.5 C 195.72,208.546 193.72,205.713 191.5,203C 192.672,200.945 194.339,200.278 196.5,201C 201.026,206.692 205.359,212.526 209.5,218.5C 208.472,220.361 206.972,221.695 205,222.5C 201.39,220.556 198.057,218.223 195,215.5C 194.333,216.167 194.333,216.833 195,217.5C 197.45,219.573 199.283,222.073 200.5,225C 199.924,226.714 198.757,227.881 197,228.5C 192.099,222.603 187.599,216.436 183.5,210C 184.058,207.942 185.391,206.775 187.5,206.5C 190.85,208.175 194.184,209.842 197.5,211.5 Z"/></g>
<g><path style="opacity:0.86" fill="#fff" d="M 176.5,211.5 C 179.179,211.673 181.513,212.673 183.5,214.5C 186.467,218.728 188.467,223.394 189.5,228.5C 188.39,233.276 185.39,235.943 180.5,236.5C 174.662,234.206 171.162,229.873 170,223.5C 168.305,217.213 170.472,213.213 176.5,211.5 Z M 176.5,216.5 C 175.859,217.482 175.193,218.482 174.5,219.5C 175.726,222.952 177.226,226.285 179,229.5C 180.079,231.394 181.413,231.727 183,230.5C 183.043,224.789 180.876,220.122 176.5,216.5 Z"/></g>
<g><path style="opacity:0.851" fill="#fff" d="M 114.5,213.5 C 119.107,213.297 121.107,215.464 120.5,220C 119.853,225.86 119.02,231.693 118,237.5C 117.692,238.308 117.192,238.975 116.5,239.5C 115.264,238.754 113.93,238.421 112.5,238.5C 113.112,235.119 111.946,232.786 109,231.5C 106.54,234.99 103.707,235.323 100.5,232.5C 105.191,226.148 109.858,219.815 114.5,213.5 Z M 113.5,222.5 C 113.489,224.017 112.823,225.184 111.5,226C 112,226.5 112.5,227 113,227.5C 114.677,225.852 114.844,224.185 113.5,222.5 Z"/></g>
<g><path style="opacity:0.826" fill="#fff" d="M 137.5,234.5 C 135.733,236.792 134.733,239.458 134.5,242.5C 132.833,242.5 131.167,242.5 129.5,242.5C 128.935,237.851 128.435,233.184 128,228.5C 127.417,232.832 126.917,237.165 126.5,241.5C 124.833,241.5 123.167,241.5 121.5,241.5C 122.093,233.493 122.76,225.493 123.5,217.5C 125.92,217.292 128.253,217.626 130.5,218.5C 132.053,223.01 132.886,227.676 133,232.5C 134.327,228.191 135.494,223.858 136.5,219.5C 139.167,219.5 141.833,219.5 144.5,219.5C 144.053,227.52 143.387,235.52 142.5,243.5C 140.833,243.5 139.167,243.5 137.5,243.5C 137.5,240.5 137.5,237.5 137.5,234.5 Z"/></g>
<g><path style="opacity:0.838" fill="#fff" d="M 164.5,216.5 C 165.586,216.62 166.253,217.287 166.5,218.5C 167.964,225.82 169.298,233.154 170.5,240.5C 168.856,240.286 167.356,240.62 166,241.5C 164.493,237.302 163.493,232.968 163,228.5C 162.828,232.871 162.328,237.204 161.5,241.5C 160.109,242.645 158.776,242.645 157.5,241.5C 156.236,238.875 155.069,236.208 154,233.5C 153.828,236.826 153.995,240.159 154.5,243.5C 152.234,243.859 150.401,243.192 149,241.5C 147.887,235.323 146.721,229.157 145.5,223C 145.755,221.674 146.422,220.674 147.5,220C 149.579,219.192 151.579,219.359 153.5,220.5C 155.098,224.126 156.598,227.793 158,231.5C 158.333,227.167 158.667,222.833 159,218.5C 160.948,217.891 162.782,217.224 164.5,216.5 Z"/></g>
</svg>
