<?xml version="1.0" standalone="no"?>
<!DOCTYPE svg PUBLIC "-//W3C//DTD SVG 20010904//EN"
 "http://www.w3.org/TR/2001/REC-SVG-20010904/DTD/svg10.dtd">
<svg version="1.0" xmlns="http://www.w3.org/2000/svg"
 width="1053.000000pt" height="280.000000pt" viewBox="0 0 1053.000000 280.000000"
 preserveAspectRatio="xMidYMid meet">

<g transform="translate(0.000000,280.000000) scale(0.100000,-0.100000)"
fill="#737373" stroke="none">
<path d="M9814 1661 l88 -89 -123 -6 c-68 -3 -752 -11 -1519 -16 -767 -6
-1937 -15 -2600 -20 -663 -5 -1979 -15 -2925 -22 -946 -7 -1713 -13 -1705 -15
15 -2 1200 -12 4710 -38 3148 -24 4152 -34 4158 -40 3 -3 -31 -43 -77 -89
l-83 -83 48 -7 c26 -3 69 -6 97 -6 l50 0 129 127 c70 70 128 131 128 136 0 5
-55 65 -122 133 l-122 124 -110 0 -111 0 89 -89z"/>
</g>
</svg>
