<?xml version="1.0" standalone="no"?>
<!DOCTYPE svg PUBLIC "-//W3C//DTD SVG 20010904//EN"
 "http://www.w3.org/TR/2001/REC-SVG-20010904/DTD/svg10.dtd">
<svg version="1.0" xmlns="http://www.w3.org/2000/svg"
 width="300.000000pt" height="310.000000pt" viewBox="0 0 300.000000 310.000000"
 preserveAspectRatio="xMidYMid meet">

<g transform="translate(0.000000,310.000000) scale(0.100000,-0.100000)"
fill="#fff" stroke="none">
<path d="M797 3002 c-20 -22 -22 -65 -4 -80 43 -34 100 -10 100 43 0 50 -63
74 -96 37z"/>
<path d="M1493 3012 c-28 -18 -33 -70 -33 -359 l0 -295 -32 6 c-18 4 -68 10
-110 13 l-78 6 0 143 c0 157 -6 174 -60 174 -51 0 -60 -27 -60 -180 l0 -136
-82 -12 c-46 -7 -95 -15 -110 -19 l-28 -5 0 194 c0 221 -5 238 -66 238 -59 0
-65 -30 -57 -268 l6 -200 -104 -49 c-234 -112 -448 -326 -553 -555 -83 -180
-111 -312 -111 -523 1 -176 19 -278 76 -423 66 -167 116 -242 162 -242 26 0
57 28 57 51 0 8 -27 68 -60 134 -91 184 -128 360 -116 555 10 185 69 362 171
521 66 104 240 272 340 330 316 184 686 203 1003 54 134 -63 215 -121 313
-222 142 -146 226 -292 276 -481 23 -85 26 -116 26 -257 1 -209 -28 -336 -110
-500 -56 -112 -116 -188 -238 -299 -100 -92 -129 -111 -237 -165 -193 -95
-245 -106 -478 -106 -155 0 -208 4 -258 18 -90 24 -204 71 -273 112 -88 51
-139 45 -139 -17 0 -39 31 -65 132 -115 97 -48 211 -85 327 -107 110 -21 337
-21 439 0 289 59 552 224 726 456 79 106 126 197 171 333 l40 120 72 3 71 3
12 -35 c27 -82 147 -141 238 -116 60 16 125 82 140 142 16 62 16 463 0 525
-15 61 -78 127 -135 142 -46 12 -113 6 -154 -15 -31 -15 -77 -68 -90 -101 -8
-21 -14 -23 -84 -23 -73 0 -75 0 -81 28 -41 185 -159 388 -321 551 l-103 104
0 219 c0 205 -1 219 -20 238 -11 11 -31 20 -44 20 -45 0 -51 -20 -56 -216 l-5
-182 -85 42 c-47 23 -96 45 -108 48 l-22 6 0 315 c0 360 -4 387 -65 387 -11 0
-25 -4 -32 -8z m1250 -1533 c12 -7 25 -17 29 -23 4 -6 8 -124 8 -262 0 -240
-1 -252 -20 -269 -29 -26 -85 -25 -113 3 -21 22 -22 30 -25 263 l-3 240 30 29
c31 32 59 37 94 19z m-243 -284 l0 -145 -57 0 -58 0 0 145 0 145 58 0 57 0 0
-145z"/>
<path d="M1076 2100 c-195 -23 -394 -125 -537 -278 -110 -116 -180 -235 -221
-379 -20 -68 -23 -100 -22 -248 1 -155 3 -178 27 -258 50 -162 124 -284 243
-398 117 -111 257 -192 401 -230 109 -30 346 -32 447 -5 315 84 559 313 656
613 92 287 43 573 -141 823 -196 267 -510 399 -853 360z m267 -124 c247 -48
460 -209 567 -430 60 -125 80 -213 80 -351 0 -138 -20 -226 -80 -351 -80 -165
-235 -313 -403 -382 -190 -79 -415 -82 -599 -8 -103 42 -171 89 -268 186 -79
78 -104 112 -143 187 -64 124 -88 220 -88 353 0 238 67 406 226 566 197 198
447 280 708 230z"/>
<path d="M1156 1858 c-23 -33 -21 -103 4 -128 27 -27 65 -26 84 2 21 30 21
112 0 132 -23 24 -70 20 -88 -6z"/>
<path d="M1391 1470 c-26 -21 -61 -54 -77 -74 -29 -34 -31 -35 -68 -25 -79 22
-169 -19 -207 -93 -43 -84 -9 -202 70 -243 43 -22 106 -29 142 -16 l33 11 151
-155 c158 -164 181 -178 218 -137 39 43 30 57 -155 240 l-125 123 3 96 2 96
66 64 c51 49 66 71 66 92 0 31 -13 45 -48 54 -16 4 -36 -5 -71 -33z m-153
-226 c43 -30 19 -114 -32 -114 -37 0 -66 28 -66 62 0 59 50 86 98 52z"/>
<path d="M525 1234 c-27 -28 -15 -67 28 -87 33 -17 42 -17 80 -5 37 11 42 17
45 46 2 18 -2 40 -9 48 -17 20 -122 19 -144 -2z"/>
<path d="M1732 1238 c-17 -17 -15 -73 2 -87 8 -7 38 -11 72 -9 51 3 60 6 73
29 13 24 13 29 -2 53 -16 23 -24 26 -75 26 -32 0 -63 -5 -70 -12z"/>
<path d="M1163 665 c-19 -13 -23 -26 -23 -70 0 -63 16 -85 64 -85 25 0 35 6
44 25 16 34 15 97 0 118 -19 24 -60 30 -85 12z"/>
<path d="M357 432 c-35 -39 -10 -92 43 -92 34 0 60 23 60 54 0 49 -70 75 -103
38z"/>
</g>
</svg>
