<?xml version="1.0" standalone="no"?>
<!DOCTYPE svg PUBLIC "-//W3C//DTD SVG 20010904//EN"
 "http://www.w3.org/TR/2001/REC-SVG-20010904/DTD/svg10.dtd">
<svg version="1.0" xmlns="http://www.w3.org/2000/svg"
 width="250.000000pt" height="300.000000pt" viewBox="0 0 250.000000 300.000000"
 preserveAspectRatio="xMidYMid meet">

<g transform="translate(0.000000,300.000000) scale(0.100000,-0.100000)"
fill="#fff" stroke="none">
<path d="M1113 2858 c-123 -117 -251 -282 -312 -404 -152 -304 -129 -648 57
-833 32 -32 81 -70 110 -85 149 -76 355 -73 503 6 262 139 331 545 156 912
-54 115 -102 183 -212 302 -112 122 -155 154 -207 154 -34 0 -47 -8 -95 -52z
m177 -205 c108 -115 207 -283 252 -423 32 -105 33 -279 0 -362 -59 -147 -181
-233 -332 -231 -138 1 -243 70 -307 201 -38 76 -38 76 -38 201 0 175 37 284
156 466 54 83 173 215 194 215 7 0 41 -30 75 -67z"/>
<path d="M390 1283 c-26 -11 -30 -26 -30 -125 l0 -98 -135 0 c-145 0 -194 -11
-214 -49 -15 -27 -4 -69 23 -83 14 -8 74 -13 171 -13 l150 0 0 -80 0 -80 -145
0 c-80 0 -158 -4 -173 -9 -26 -8 -28 -11 -25 -59 4 -72 17 -77 201 -77 l147 0
0 -172 0 -172 -47 46 c-57 55 -87 71 -113 63 -27 -8 -53 -60 -44 -87 8 -26
195 -240 229 -262 43 -28 74 -21 119 31 22 26 75 84 118 129 42 46 79 92 83
105 10 31 -24 73 -63 77 -27 3 -41 -5 -87 -49 l-55 -52 0 177 0 176 320 0 320
0 0 -177 0 -178 -56 58 c-48 51 -59 58 -82 52 -57 -14 -78 -62 -49 -111 7 -11
59 -73 117 -137 140 -157 135 -157 282 -4 60 61 116 125 124 140 18 34 10 83
-16 97 -43 23 -72 12 -127 -48 l-53 -57 0 176 0 176 203 6 c111 4 257 7 325 7
l122 0 0 -180 0 -180 -42 47 c-24 25 -58 52 -77 60 -31 13 -36 13 -60 -5 -57
-42 -32 -93 121 -255 121 -127 124 -127 234 -14 133 136 164 176 164 212 0 40
-26 65 -68 65 -26 0 -42 -11 -82 -53 l-50 -52 0 173 0 172 134 0 c181 0 216
14 216 89 0 49 -24 56 -197 55 l-153 -1 0 83 0 83 148 -2 c127 -2 151 1 175
16 20 13 27 26 27 50 0 17 -4 38 -9 45 -13 22 -78 32 -213 32 l-128 0 0 73 c0
39 -3 89 -6 109 -6 33 -11 38 -41 44 -77 14 -110 -38 -100 -158 l6 -68 -323 0
-323 0 5 49 c10 112 -19 181 -76 181 -51 0 -67 -30 -70 -136 l-4 -94 -318 0
-318 0 -4 104 c-2 58 -6 108 -10 111 -9 10 -81 15 -98 8z m750 -448 l0 -85
-320 0 -320 0 0 85 0 85 320 0 320 0 0 -85z m788 4 l3 -76 -212 -6 c-117 -4
-263 -7 -326 -7 l-113 0 0 85 0 85 323 -2 322 -3 3 -76z"/>
</g>
</svg>
