<?xml version="1.0" standalone="no"?>
<!DOCTYPE svg PUBLIC "-//W3C//DTD SVG 20010904//EN"
 "http://www.w3.org/TR/2001/REC-SVG-20010904/DTD/svg10.dtd">
<svg version="1.0" xmlns="http://www.w3.org/2000/svg"
 width="300.000000pt" height="300.000000pt" viewBox="0 0 240.000000 250.000000"
 preserveAspectRatio="xMidYMid meet">

<g transform="translate(0.000000,250.000000) scale(0.100000,-0.100000)"
fill="#fff" stroke="none">
<path d="M730 2343 c0 -10 7 -37 17 -61 9 -25 12 -46 7 -51 -5 -4 -34 -18 -64
-31 -259 -107 -497 -354 -601 -623 -65 -170 -73 -214 -73 -422 -1 -177 1 -197
26 -288 39 -137 79 -228 147 -334 285 -441 820 -629 1330 -468 148 47 301 139
427 258 101 94 118 145 65 198 -49 48 -78 41 -169 -43 -206 -192 -390 -274
-637 -285 -145 -7 -236 6 -368 51 -295 101 -520 340 -614 651 -24 81 -27 106
-27 250 -1 191 17 272 94 430 101 207 295 392 488 465 l51 19 16 -49 c25 -74
38 -79 72 -28 56 83 133 226 133 247 0 25 -10 30 -182 91 -125 45 -138 47
-138 23z"/>
<path d="M1347 2249 c-17 -15 -30 -38 -34 -61 -5 -32 -1 -41 23 -66 39 -39
122 -59 166 -41 72 29 67 134 -7 165 -19 8 -55 17 -78 20 -36 5 -48 2 -70 -17z"/>
<path d="M1689 2115 c-44 -24 -60 -90 -32 -131 5 -6 28 -25 52 -42 67 -48 125
-41 156 19 24 45 5 91 -50 129 -54 37 -92 45 -126 25z"/>
<path d="M1937 1860 c-37 -29 -42 -64 -17 -116 44 -90 119 -120 174 -69 37 34
35 83 -4 141 -17 24 -39 48 -50 54 -30 16 -75 12 -103 -10z"/>
<path d="M1095 1750 c-198 -3 -361 -7 -362 -8 -2 -1 -3 -29 -3 -62 0 -55 2
-61 25 -70 25 -9 25 -11 25 -128 0 -153 4 -160 165 -255 163 -98 164 -102 18
-190 -164 -99 -173 -113 -173 -261 0 -101 -1 -105 -22 -108 -21 -3 -23 -8 -23
-68 l0 -65 160 -2 c88 -2 279 0 425 5 l265 7 0 65 c0 60 -2 65 -22 68 -22 3
-23 7 -23 105 0 144 -7 156 -146 237 -135 79 -144 86 -144 116 0 17 15 31 63
60 212 128 217 134 217 301 0 118 1 122 23 125 19 3 22 10 25 56 4 71 -7 83
-77 80 -31 -1 -218 -5 -416 -8z m373 -235 c2 -56 -2 -110 -8 -125 -6 -15 -39
-44 -78 -69 -37 -24 -95 -61 -130 -82 l-63 -40 3 -71 3 -71 125 -74 c69 -41
133 -83 143 -95 13 -16 17 -39 17 -113 l0 -92 -97 -6 c-54 -4 -194 -7 -310 -7
l-213 0 0 98 c0 64 4 104 13 116 7 9 69 52 137 95 l125 78 3 64 c1 35 -1 69
-5 75 -5 7 -63 44 -131 84 -67 40 -129 82 -137 93 -11 16 -15 50 -15 129 l0
108 298 2 c163 2 302 3 307 2 6 0 11 -43 13 -99z"/>
<path d="M2123 1555 c-55 -23 -65 -66 -37 -148 30 -88 100 -113 156 -56 28 27
30 34 24 75 -9 69 -35 114 -72 130 -39 16 -31 17 -71 -1z"/>
<path d="M2154 1187 c-31 -27 -47 -109 -32 -165 19 -70 129 -77 163 -12 8 16
15 54 15 85 0 49 -4 60 -29 86 -37 36 -79 38 -117 6z"/>
<path d="M2105 851 c-29 -12 -50 -40 -70 -93 -29 -79 3 -138 77 -138 41 0 67
19 91 67 37 73 28 132 -24 158 -31 17 -45 18 -74 6z"/>
</g>
</svg>
