<?xml version="1.0" standalone="no"?>
<!DOCTYPE svg PUBLIC "-//W3C//DTD SVG 20010904//EN"
 "http://www.w3.org/TR/2001/REC-SVG-20010904/DTD/svg10.dtd">
<svg version="1.0" xmlns="http://www.w3.org/2000/svg"
 width="300.000000pt" height="300.000000pt" viewBox="0 0 220.000000 300.000000"
 preserveAspectRatio="xMidYMid meet">

<g transform="translate(0.000000,300.000000) scale(0.100000,-0.100000)"
fill="#fff" stroke="none">
<path d="M993 2818 c-11 -13 -175 -252 -364 -533 -189 -280 -372 -553 -408
-605 -210 -309 -265 -591 -180 -923 66 -260 280 -518 536 -646 258 -129 563
-142 844 -35 201 76 404 255 517 455 92 163 126 295 126 497 l1 144 36 39
c117 127 160 342 100 499 -11 30 -112 191 -223 358 -207 308 -226 330 -267
305 -9 -5 -50 -60 -92 -122 l-77 -112 -34 48 c-20 26 -122 179 -228 338 -106
160 -199 296 -208 303 -24 19 -56 14 -79 -10z m271 -470 c178 -265 205 -310
196 -327 -6 -11 -48 -76 -93 -144 -98 -145 -121 -209 -121 -337 0 -97 25 -186
74 -260 16 -25 25 -46 20 -48 -6 -2 -10 -50 -10 -113 l0 -109 -75 0 -75 0 0
110 0 110 -70 0 -70 0 0 -280 0 -280 70 0 70 0 0 110 0 110 75 0 75 0 0 -110
0 -110 65 0 65 0 0 230 0 230 50 -25 c113 -57 225 -68 355 -35 43 11 83 20 88
20 15 0 0 -182 -23 -278 -64 -267 -251 -490 -514 -612 -292 -137 -645 -104
-911 85 -135 96 -261 256 -325 413 -50 124 -63 206 -58 375 5 137 8 161 37
247 18 52 46 119 62 148 26 47 624 940 763 1140 39 57 53 69 62 60 7 -7 105
-151 218 -320z m642 -375 c92 -137 177 -270 187 -298 28 -69 27 -192 0 -262
-46 -118 -145 -209 -258 -238 -75 -19 -116 -19 -190 1 -231 60 -354 301 -260
510 20 46 340 534 350 534 2 0 79 -111 171 -247z"/>
<path d="M385 1473 c-36 -36 -108 -189 -130 -276 -20 -84 -21 -240 -1 -336 43
-206 164 -377 348 -490 146 -90 238 -103 238 -34 0 41 -10 50 -79 78 -157 64
-274 172 -351 326 -49 96 -63 169 -57 304 5 136 20 188 86 304 46 82 51 113
19 135 -31 22 -41 20 -73 -11z"/>
<path d="M550 950 l0 -280 65 0 64 0 3 98 3 97 80 5 c87 6 106 14 147 57 51
54 62 127 29 199 -36 80 -99 104 -273 104 l-118 0 0 -280z m256 139 c20 -16
17 -63 -5 -83 -14 -12 -32 -16 -67 -14 l-49 3 -3 44 c-5 68 0 75 59 68 28 -4
57 -12 65 -18z"/>
<path d="M937 353 c-46 -12 -38 -97 10 -109 44 -11 82 52 55 92 -9 14 -42 23
-65 17z"/>
<path d="M1461 1684 c-44 -57 -40 -181 10 -275 51 -94 122 -135 163 -93 26 26
18 51 -33 108 -58 64 -67 96 -51 182 11 58 11 67 -5 84 -25 27 -60 25 -84 -6z"/>
<path d="M1713 1349 c-30 -11 -38 -45 -18 -75 23 -36 76 -31 89 9 17 47 -23
84 -71 66z"/>
</g>
</svg>
