<?xml version="1.0" standalone="no"?>
<!DOCTYPE svg PUBLIC "-//W3C//DTD SVG 20010904//EN"
 "http://www.w3.org/TR/2001/REC-SVG-20010904/DTD/svg10.dtd">
<svg version="1.0" xmlns="http://www.w3.org/2000/svg"
 width="300.000000pt" height="300.000000pt" viewBox="0 0 350.000000 300.000000"
 preserveAspectRatio="xMidYMid meet">

<g transform="translate(25.000000,310.000000) scale(0.100000,-0.100000)"
fill="#fff" stroke="none">
<path d="M1340 3013 c-77 -10 -268 -56 -349 -85 -473 -167 -838 -594 -953
-1116 -29 -132 -32 -432 -5 -567 123 -608 555 -1061 1147 -1202 156 -37 427
-43 596 -15 289 50 519 160 752 362 150 130 259 278 362 492 106 220 147 427
136 683 -10 239 -53 418 -146 608 -79 160 -153 260 -295 402 -139 140 -236
211 -392 289 -204 102 -391 146 -643 151 -96 2 -191 1 -210 -2z m430 -200
c378 -258 599 -607 601 -948 1 -55 -2 -118 -6 -140 l-8 -39 -32 100 c-17 56
-48 130 -68 166 -80 144 -262 346 -404 450 -127 93 -348 181 -536 214 -71 13
-129 15 -252 11 -160 -6 -248 -21 -393 -66 -42 -13 -62 -16 -59 -8 6 21 198
145 302 196 207 101 384 140 635 137 l115 -1 105 -72z m325 -44 c275 -142 517
-374 649 -624 22 -42 26 -63 26 -128 0 -213 -142 -625 -274 -796 -95 -122
-242 -254 -320 -286 -45 -19 -47 -25 51 108 129 176 213 371 249 580 12 70 15
132 11 257 -7 239 -42 355 -168 560 -51 83 -90 130 -191 230 -162 160 -164
166 -33 99z m-645 -311 c128 -33 230 -74 245 -98 12 -19 0 -20 -54 -4 -59 17
-171 14 -361 -12 -338 -46 -598 -181 -794 -414 -133 -157 -207 -300 -271 -520
-20 -69 -39 -132 -42 -140 -13 -33 -25 83 -26 235 0 173 18 290 69 445 34 103
127 291 166 335 99 113 491 218 793 211 122 -3 158 -8 275 -38z m231 -248
c128 -25 202 -61 299 -142 127 -107 201 -227 241 -387 29 -114 24 -295 -11
-386 -52 -139 -161 -287 -274 -375 -70 -53 -221 -106 -351 -122 -205 -25 -416
53 -575 212 -87 87 -130 156 -174 277 -30 84 -31 95 -31 238 0 140 2 155 28
220 54 135 149 265 252 342 173 130 361 169 596 123z m-781 -120 c0 -10 -18
-33 -40 -51 -107 -86 -264 -428 -305 -666 -27 -155 -15 -352 32 -513 59 -203
176 -379 388 -584 48 -46 49 -47 20 -41 -39 8 -191 99 -293 174 -175 130 -293
264 -385 438 l-50 96 6 106 c12 205 115 519 225 681 91 135 345 380 394 380 4
0 8 -9 8 -20z m1994 -560 c0 -187 -3 -227 -22 -302 -44 -179 -143 -405 -207
-476 -47 -53 -112 -86 -283 -143 -185 -62 -280 -79 -447 -79 -200 0 -359 32
-509 103 l-68 32 193 1 c161 0 211 4 296 22 281 61 489 174 669 365 165 174
284 403 339 651 28 127 39 78 39 -174z m-2190 -254 c33 -117 81 -209 167 -326
95 -128 252 -284 350 -349 200 -132 419 -193 694 -194 171 -1 252 9 409 49 54
14 100 23 103 21 2 -3 -45 -40 -104 -82 -119 -86 -240 -147 -378 -193 -158
-52 -239 -64 -413 -60 -142 3 -161 6 -202 27 -137 72 -385 305 -483 452 -121
183 -185 379 -188 575 -1 73 9 144 20 144 3 0 15 -29 25 -64z"/>
</g>
</svg>
