<?xml version="1.0" encoding="UTF-8"?>
<!DOCTYPE svg PUBLIC "-//W3C//DTD SVG 1.1//EN" "http://www.w3.org/Graphics/SVG/1.1/DTD/svg11.dtd">
<svg xmlns="http://www.w3.org/2000/svg" version="1.1" width="305px" height="305px" style="shape-rendering:geometricPrecision; text-rendering:geometricPrecision; image-rendering:optimizeQuality; fill-rule:evenodd; clip-rule:evenodd" xmlns:xlink="http://www.w3.org/1999/xlink">
<g><path style="opacity:0.949" fill="#fff" d="M 141.5,-0.5 C 148.167,-0.5 154.833,-0.5 161.5,-0.5C 225.832,6.91947 270.332,40.5861 295,100.5C 314.739,166.402 299.239,222.236 248.5,268C 224.058,288.202 196.058,299.702 164.5,302.5C 155.5,302.5 146.5,302.5 137.5,302.5C 78.7383,294.874 36.905,264.207 12,210.5C 4.94584,193.372 0.779174,175.706 -0.5,157.5C -0.5,152.833 -0.5,148.167 -0.5,143.5C 5.04951,83.8849 34.3828,40.3849 87.5,13C 105.009,5.95614 123.009,1.45614 141.5,-0.5 Z M 62.5,46.5 C 92.3721,22.047 126.705,11.547 165.5,15C 195.41,31.908 217.243,56.0746 231,87.5C 236.285,101.821 237.618,116.487 235,131.5C 230.68,114.192 222.68,98.8587 211,85.5C 179.135,49.6528 139.302,34.4861 91.5,40C 81.7107,41.6978 72.044,43.8644 62.5,46.5 Z M 215.5,208.5 C 246.859,171.221 256.359,128.888 244,81.5C 234.483,58.301 219.983,38.801 200.5,23C 232.08,35.8994 256.247,57.3994 273,87.5C 275.258,91.5315 276.425,95.8648 276.5,100.5C 273.329,130.855 263.163,158.522 246,183.5C 240.167,189.333 234.333,195.167 228.5,201C 224.52,204.155 220.186,206.655 215.5,208.5 Z M 110.5,52.5 C 128.424,52.9848 145.757,56.4848 162.5,63C 164.844,63.8372 166.844,65.1706 168.5,67C 132.579,62.5842 99.2456,69.9175 68.5,89C 41.0547,110.692 23.8881,138.859 17,173.5C 11.0857,138.407 17.7523,105.741 37,75.5C 43.8956,68.7999 52.0623,64.2999 61.5,62C 77.6869,57.3284 94.0202,54.1617 110.5,52.5 Z M 144.5,79.5 C 173.241,78.1219 195.741,89.1219 212,112.5C 232.425,152.634 224.591,186.134 188.5,213C 149.585,230.979 117.085,223.145 91,189.5C 70.7731,150.584 77.9397,117.75 112.5,91C 122.44,84.8556 133.107,81.0222 144.5,79.5 Z M 86.5,92.5 C 88.3547,92.272 89.1881,92.9387 89,94.5C 83.6207,98.212 79.2873,102.879 76,108.5C 60.1835,133.944 52.5168,161.611 53,191.5C 56.3284,226.997 71.8284,255.83 99.5,278C 65.6559,263.824 41.3226,239.824 26.5,206C 28.2508,180.412 35.0841,156.246 47,133.5C 57.988,117.68 71.1546,104.013 86.5,92.5 Z M 286.5,126.5 C 292.914,161.877 286.414,194.877 267,225.5C 263.282,229.273 259.116,232.44 254.5,235C 235.085,243.771 214.752,248.604 193.5,249.5C 174.473,249.596 156.473,245.429 139.5,237C 174.891,240.07 207.225,231.736 236.5,212C 263.805,189.83 280.471,161.33 286.5,126.5 Z M 238.5,256.5 C 207.65,282.616 172.317,292.116 132.5,285C 106.69,269.192 87.1902,247.692 74,220.5C 67.2449,204.659 65.0782,188.326 67.5,171.5C 70.3702,179.609 73.5369,187.609 77,195.5C 115.506,255.293 169.339,275.626 238.5,256.5 Z"/></g>
</svg>
