<?xml version="1.0" standalone="no"?>
<!DOCTYPE svg PUBLIC "-//W3C//DTD SVG 20010904//EN"
 "http://www.w3.org/TR/2001/REC-SVG-20010904/DTD/svg10.dtd">
<svg version="1.0" xmlns="http://www.w3.org/2000/svg"
 width="300.000000pt" height="314.000000pt" viewBox="0 0 200.000000 314.000000"
 preserveAspectRatio="xMidYMid meet">

<g transform="translate(0.000000,314.000000) scale(0.100000,-0.100000)"
fill="#fff" stroke="none">
<path d="M638 3120 c-174 -44 -316 -202 -339 -378 -4 -37 -9 -371 -9 -742 l0
-675 -61 -60 c-104 -102 -161 -203 -199 -349 -24 -95 -26 -239 -5 -340 53
-250 279 -484 535 -553 92 -24 278 -22 381 5 197 52 379 202 473 389 48 96 70
196 70 323 0 211 -65 367 -216 526 l-58 61 -3 714 c-2 712 -2 714 -25 773 -12
33 -33 78 -46 100 -37 63 -128 143 -203 179 -59 27 -80 32 -163 34 -52 1 -112
-2 -132 -7z m192 -186 c39 -12 66 -29 106 -68 88 -88 84 -49 84 -889 l0 -729
93 -92 c100 -98 142 -166 172 -281 87 -336 -175 -682 -520 -687 -321 -5 -569
240 -569 562 0 167 58 288 202 420 l77 70 5 757 c4 597 8 764 18 788 31 71 89
122 171 151 49 18 97 17 161 -2z"/>
<path d="M681 2374 c-12 -15 -21 -41 -22 -58 0 -17 0 -296 1 -621 l1 -590 -50
-18 c-64 -22 -157 -107 -196 -179 -28 -49 -30 -60 -30 -158 0 -93 3 -112 27
-162 35 -76 107 -151 177 -185 50 -25 67 -28 156 -28 93 0 105 2 167 33 78 38
138 100 177 182 22 47 26 68 26 150 0 82 -4 103 -26 151 -44 93 -144 185 -221
204 l-28 7 0 608 c0 417 -3 617 -11 639 -14 38 -35 51 -88 51 -31 0 -44 -6
-60 -26z m149 -1466 c141 -71 139 -262 -2 -332 -57 -29 -75 -31 -130 -16 -101
28 -164 150 -127 247 24 64 109 122 179 123 20 0 56 -10 80 -22z"/>
<path d="M1421 2744 c-61 -51 -31 -144 51 -159 19 -4 101 -5 182 -3 l148 3 24
28 c26 31 32 90 11 118 -26 34 -55 39 -221 39 -162 0 -165 0 -195 -26z"/>
<path d="M1415 2375 c-17 -16 -25 -35 -25 -59 0 -87 23 -96 240 -96 168 0 171
0 195 25 19 18 25 35 25 65 0 30 -6 47 -25 65 -24 25 -26 25 -205 25 -179 0
-181 0 -205 -25z"/>
<path d="M1450 2033 c-38 -15 -60 -47 -60 -89 0 -35 5 -47 31 -68 30 -26 33
-26 195 -26 166 0 195 5 221 39 21 28 15 87 -11 118 l-24 28 -169 2 c-92 1
-175 -1 -183 -4z"/>
<path d="M1420 1644 c-27 -24 -31 -32 -28 -72 2 -36 9 -49 31 -66 26 -19 41
-21 204 -21 l175 0 24 28 c26 31 32 90 11 118 -26 34 -55 39 -221 39 -163 0
-165 0 -196 -26z"/>
</g>
</svg>
