<?xml version="1.0" standalone="no"?>
<!DOCTYPE svg PUBLIC "-//W3C//DTD SVG 20010904//EN"
 "http://www.w3.org/TR/2001/REC-SVG-20010904/DTD/svg10.dtd">
<svg version="1.0" xmlns="http://www.w3.org/2000/svg"
 width="300.000000pt" height="300.000000pt" viewBox="0 0 300.000000 300.000000"
 preserveAspectRatio="xMidYMid meet">

<g transform="translate(0.000000,300.000000) scale(0.100000,-0.100000)"
fill="#fff" stroke="none">
<path d="M492 2978 c-7 -7 -12 -26 -12 -42 0 -26 39 -69 296 -327 278 -279
295 -298 284 -319 -7 -12 -12 -49 -12 -82 0 -111 75 -204 175 -215 44 -5 45
-6 52 -48 13 -91 113 -185 196 -185 24 0 27 -5 33 -44 11 -68 55 -129 117
-160 29 -14 65 -26 79 -26 24 0 28 -6 38 -52 17 -70 46 -114 97 -144 64 -37
137 -42 203 -14 l51 22 40 -32 c22 -17 115 -108 206 -202 179 -186 192 -207
160 -268 -19 -37 -73 -63 -110 -54 -14 3 -92 73 -173 155 -135 135 -152 149
-183 149 -41 0 -59 -15 -59 -49 0 -17 31 -56 114 -140 62 -64 119 -126 125
-138 28 -55 -8 -135 -66 -146 -48 -9 -93 20 -207 132 -61 59 -120 111 -130
115 -28 10 -66 -19 -66 -50 0 -18 25 -51 89 -118 101 -107 121 -147 96 -195
-17 -34 -35 -46 -80 -53 -45 -8 -58 0 -153 94 -99 97 -134 115 -164 78 -29
-35 -22 -62 28 -110 25 -25 52 -58 61 -74 40 -77 -45 -170 -126 -136 -35 14
-656 637 -700 703 -75 111 -118 234 -137 392 l-5 50 -277 278 c-220 219 -283
277 -303 277 -30 0 -59 -28 -59 -56 0 -13 71 -91 191 -210 105 -104 195 -196
200 -206 6 -11 1 -33 -17 -73 -36 -77 -54 -149 -54 -214 l0 -55 -160 -161
c-107 -107 -160 -168 -160 -182 0 -30 26 -53 61 -53 26 0 56 25 191 158 88 86
165 166 170 176 6 11 14 62 18 115 8 101 33 181 56 181 18 0 34 -32 34 -68 0
-47 45 -212 78 -284 17 -37 47 -93 68 -125 46 -71 673 -706 729 -738 58 -33
106 -39 173 -20 63 19 138 84 144 127 2 18 9 22 28 20 83 -8 137 -5 167 11 46
25 102 85 111 121 8 31 9 31 88 36 62 4 87 11 113 29 40 29 91 97 91 123 0 16
8 18 64 18 78 0 110 11 154 53 66 63 90 141 69 223 -13 49 -12 51 14 77 15 14
37 47 49 72 44 92 50 136 50 405 0 319 7 304 -125 298 l-93 -4 5 51 c15 141
-89 254 -224 243 l-55 -5 -18 41 c-37 87 -121 139 -216 135 l-54 -3 -26 52
c-46 93 -143 142 -238 122 -27 -6 -50 -9 -51 -8 -1 2 -7 17 -14 34 -16 41 -68
93 -108 110 -43 18 -135 18 -179 -1 -20 -8 -69 -47 -110 -87 l-75 -72 -292
292 c-254 253 -297 292 -323 292 -16 0 -35 -5 -42 -12z m1003 -544 c29 -31 33
-80 11 -122 -16 -29 -145 -159 -186 -186 -31 -20 -89 -21 -117 -1 -28 20 -47
84 -34 117 5 12 54 67 109 121 97 95 100 97 146 97 38 0 52 -5 71 -26z m308
-154 c19 -21 27 -41 27 -67 0 -32 -12 -48 -127 -167 -71 -73 -140 -140 -155
-149 -83 -54 -184 25 -147 116 17 40 209 240 269 279 55 35 92 32 133 -12z
m268 -150 c31 -17 52 -68 44 -108 -5 -27 -33 -62 -123 -155 -169 -173 -224
-217 -271 -217 -77 0 -120 71 -86 143 9 19 87 105 174 191 154 151 160 156
200 156 23 0 51 -5 62 -10z m293 -181 c15 -12 31 -32 36 -44 20 -52 -3 -84
-208 -288 -195 -194 -199 -197 -241 -197 -80 0 -125 76 -87 148 8 15 99 111
203 215 183 181 191 187 230 187 26 0 50 -8 67 -21z m244 -506 c-3 -224 -4
-240 -25 -278 -28 -50 -48 -75 -59 -75 -5 0 -86 77 -179 170 l-170 170 78 77
77 78 0 -117 c0 -129 8 -148 59 -148 45 0 53 19 56 137 3 121 10 146 51 184
33 31 48 37 87 38 l29 1 -4 -237z"/>
<path d="M1003 400 c-53 -21 -31 -110 27 -110 30 0 60 30 60 60 0 39 -47 66
-87 50z"/>
<path d="M775 176 c-67 -66 -85 -90 -85 -113 0 -37 10 -50 43 -58 24 -7 36 2
117 81 95 92 109 123 74 158 -32 33 -61 20 -149 -68z"/>
</g>
</svg>
