<?xml version="1.0" standalone="no"?>
<!DOCTYPE svg PUBLIC "-//W3C//DTD SVG 20010904//EN"
 "http://www.w3.org/TR/2001/REC-SVG-20010904/DTD/svg10.dtd">
<svg version="1.0" xmlns="http://www.w3.org/2000/svg"
 width="300.000000pt" height="300.000000pt" viewBox="0 0 400.000000 400.000000"
 preserveAspectRatio="xMidYMid meet">

<g transform="translate(-100.000000,520.000000) scale(0.100000,-0.100000)"
fill="#fff" stroke="none">
<path d="M2819 4566 c-166 -58 -473 -279 -509 -365 -10 -26 -17 -29 -76 -34
-46 -3 -76 -12 -103 -30 -66 -44 -97 -138 -72 -223 9 -30 7 -32 -30 -43 -118
-36 -176 -181 -114 -287 l25 -43 -32 -17 c-42 -21 -86 -62 -104 -96 -29 -55
-10 -154 38 -205 l21 -22 -26 -10 c-37 -14 -103 -76 -117 -111 -22 -54 -8
-131 33 -188 20 -27 37 -54 37 -58 0 -5 -17 -29 -39 -54 l-38 -44 -28 19 c-66
47 -82 55 -114 55 -28 0 -43 -9 -75 -43 -57 -59 -266 -320 -311 -387 -43 -63
-42 -96 3 -143 23 -25 864 -706 963 -780 86 -64 126 -54 220 59 95 115 221
272 257 323 49 68 45 105 -19 168 l-51 50 162 167 c90 91 173 169 187 172 17
5 69 -16 199 -80 143 -70 186 -96 235 -143 84 -80 88 -88 51 -127 -44 -45 -55
-80 -38 -119 15 -36 321 -404 362 -436 16 -13 41 -21 64 -21 45 0 24 -16 615
482 438 369 464 395 449 454 -6 24 -159 214 -318 396 -75 86 -120 95 -193 38
-14 -11 -29 -20 -33 -20 -12 0 -225 261 -223 274 1 6 6 35 12 64 13 66 0 140
-38 202 -25 43 -26 47 -13 95 14 56 8 144 -14 186 -7 15 -35 46 -62 71 l-50
44 20 39 c29 55 34 141 14 203 -13 38 -31 64 -68 97 l-51 46 2 84 c3 101 -16
153 -73 203 -51 45 -79 54 -161 55 -78 1 -109 -7 -242 -65 l-92 -40 -73 64
c-85 74 -126 100 -188 121 -85 27 -111 28 -181 3z m199 -96 c32 -17 82 -53
112 -80 l55 -50 -27 -24 c-43 -39 -373 -245 -454 -283 -94 -45 -189 -55 -259
-29 -57 22 -75 48 -75 108 0 41 5 54 37 89 71 78 257 208 397 276 85 41 127
40 214 -7z m645 -71 c62 -32 97 -92 97 -163 -1 -82 -10 -91 -210 -202 -102
-56 -189 -109 -195 -118 -13 -21 6 -52 31 -48 11 2 100 46 198 98 99 52 189
94 201 94 11 0 36 -16 55 -35 29 -30 34 -43 38 -93 7 -104 -26 -146 -208 -266
-136 -90 -153 -105 -144 -130 13 -35 49 -21 210 81 55 34 109 63 120 63 61 0
114 -73 114 -157 0 -65 -22 -97 -113 -164 -141 -103 -147 -108 -147 -134 0
-13 4 -27 10 -30 13 -8 80 28 171 92 l77 53 20 -25 c41 -52 40 -130 -5 -219
-29 -57 -190 -227 -277 -293 -148 -111 -333 -192 -611 -268 -93 -25 -193 -57
-221 -70 -47 -23 -193 -161 -331 -314 -24 -27 -45 -42 -54 -39 -16 7 -640 506
-682 546 -15 14 -27 29 -27 32 0 4 16 25 36 49 36 42 37 42 58 23 36 -33 83
-52 131 -52 99 0 177 81 179 184 1 48 2 50 36 59 75 19 140 98 140 170 0 33 2
35 41 41 81 13 151 71 170 141 15 53 -2 136 -37 182 -22 28 -24 37 -13 44 8 5
20 9 26 9 21 0 95 73 110 107 28 69 11 150 -47 221 l-30 37 69 21 c84 26 173
76 445 252 207 134 278 172 392 211 66 23 144 27 177 10z m-1370 -344 c17 -54
55 -93 122 -125 49 -23 78 -46 120 -96 50 -60 55 -69 55 -114 0 -41 -5 -53
-31 -79 -24 -25 -39 -31 -72 -31 -23 1 -52 6 -64 13 -27 15 -247 249 -274 292
-11 17 -19 48 -19 72 0 33 6 48 31 73 28 27 37 31 77 28 41 -3 46 -6 55 -33z
m-49 -367 c60 -62 142 -151 182 -197 65 -73 74 -88 74 -123 0 -78 -49 -128
-127 -128 -35 0 -46 8 -151 116 -62 64 -144 151 -182 195 -67 76 -70 81 -70
130 0 45 4 55 34 85 29 29 41 34 83 34 l48 0 109 -112z m-171 -289 c184 -198
207 -228 207 -268 0 -66 -61 -116 -127 -103 -21 4 -140 119 -237 230 -39 45
-46 59 -46 95 0 34 6 49 28 69 35 33 50 38 92 33 26 -3 47 -17 83 -56z m-134
-293 c36 -19 159 -160 167 -191 16 -65 -33 -125 -102 -125 -36 0 -51 6 -84 36
-60 54 -120 129 -129 161 -12 44 5 91 42 113 38 24 68 25 106 6z m2194 -210
c54 -63 97 -121 97 -128 0 -15 -17 -31 -405 -358 -165 -139 -308 -260 -318
-268 -16 -15 -23 -11 -81 49 -74 77 -135 119 -273 188 -57 28 -103 55 -103 59
0 5 53 23 118 41 351 98 528 198 748 421 60 60 112 110 115 110 3 0 49 -51
102 -114z m466 -300 c94 -112 171 -209 171 -215 0 -10 -73 -72 -630 -542 -389
-327 -358 -303 -377 -288 -38 32 -333 394 -333 409 0 21 963 840 987 840 6 0
88 -92 182 -204z m-2870 27 c408 -326 861 -698 861 -708 0 -11 -230 -300 -302
-380 l-45 -49 -28 18 c-35 23 -814 647 -910 729 -38 33 -71 66 -73 73 -5 19
324 434 344 434 4 0 72 -53 153 -117z"/>
</g>
</svg>
