<?xml version="1.0" encoding="utf-8"?>
<!-- Generator: Adobe Illustrator 24.1.2, SVG Export Plug-In . SVG Version: 6.00 Build 0)  -->
<svg version="1.1" id="Layer_1" xmlns="http://www.w3.org/2000/svg" xmlns:xlink="http://www.w3.org/1999/xlink" x="0px" y="0px"
	 viewBox="0 0 437 89" style="enable-background:new 0 0 437 89;" xml:space="preserve">
<style type="text/css">
	.st0{fill:#008556;}
	.st1{fill:#FF5F00;}
</style>
<g>
	<path class="st0" d="M254,35.8h3.7c0,0.9,0.4,1.6,1.3,2c0.8,0.4,2.2,0.6,4,0.6c1.8,0,3.1-0.2,4-0.6c0.8-0.4,1.3-1.1,1.3-2
		c0-0.9-0.4-1.6-1.1-2c-0.7-0.4-1.9-0.6-3.5-0.6h-3.8v-3.2h3.9c1.5,0,2.6-0.2,3.2-0.6c0.7-0.4,1-1,1-1.9c0-0.8-0.4-1.4-1.2-1.8
		c-0.8-0.4-2-0.6-3.7-0.6c-1.7,0-2.9,0.2-3.7,0.6c-0.8,0.4-1.2,1-1.2,1.8h-3.7c0-2.1,0.7-3.5,2-4.5c1.3-0.9,3.5-1.4,6.6-1.4
		c3,0,5.2,0.4,6.6,1.3c1.3,0.8,2,2.2,2,4.1c0,2.1-0.8,3.6-2.4,4.5c1.8,0.8,2.7,2.4,2.7,4.6c0,2-0.7,3.4-2.1,4.3
		c-1.4,0.9-3.7,1.3-6.8,1.3c-3.1,0-5.4-0.5-6.8-1.5C254.7,39.5,254,38,254,35.8"/>
	<path class="st0" d="M277.3,41.7h-4.2l8.8-19.6h4.4l8.8,19.6H291l-1.6-3.6h-10.5L277.3,41.7z M284.2,26.2l-3.6,8.2h7.2L284.2,26.2z
		"/>
	<polygon class="st0" points="305,41.7 305,22.1 308.9,22.1 308.9,29.8 312,29.8 318.1,22.1 322.9,22.1 315.2,31.6 323.6,41.7 
		318.7,41.7 312,33.5 308.9,33.5 308.9,41.7 	"/>
	<path class="st0" d="M325.9,41.7V22.1h10c2.4,0,4.2,0.5,5.3,1.6c1.1,1,1.6,2.7,1.6,5c0,2.3-0.5,4-1.6,5c-1.1,1-2.9,1.6-5.3,1.6h-6
		v6.5H325.9z M329.8,31.5h5.8c1.1,0,1.9-0.2,2.5-0.7c0.5-0.5,0.8-1.2,0.8-2.2c0-1-0.3-1.7-0.8-2.2c-0.5-0.5-1.3-0.7-2.5-0.7h-5.8
		V31.5z"/>
	<path class="st0" d="M355,21.8c3.5,0,6.1,0.8,7.7,2.4c1.6,1.6,2.4,4.1,2.4,7.7c0,3.5-0.8,6.1-2.4,7.7c-1.6,1.6-4.1,2.4-7.7,2.4
		c-3.5,0-6.1-0.8-7.7-2.4c-1.6-1.6-2.4-4.1-2.4-7.7c0-3.5,0.8-6.1,2.4-7.7C348.9,22.6,351.5,21.8,355,21.8 M350.3,27
		c-1,1-1.5,2.6-1.5,4.9c0,2.2,0.5,3.8,1.5,4.8c1,1,2.5,1.5,4.7,1.5c2.1,0,3.7-0.5,4.7-1.5c1-1,1.5-2.6,1.5-4.8
		c0-2.2-0.5-3.8-1.5-4.9c-1-1-2.5-1.5-4.7-1.5C352.9,25.5,351.3,26,350.3,27"/>
	<polygon class="st0" points="367.9,41.7 367.9,22.1 371.9,22.1 371.9,29.8 374.9,29.8 381.1,22.1 385.9,22.1 378.2,31.6 
		386.5,41.7 381.6,41.7 374.9,33.5 371.9,33.5 371.9,41.7 	"/>
	<path class="st0" d="M258.2,72.5h-3.9v-8.3h2.6c0.5-0.4,1-1.4,1.3-2.8c0.3-1.5,0.6-4.2,0.8-8.2l0.3-4.9h15.2v15.9h3.2v8.3h-3.9V68
		h-15.5V72.5z M261.1,64.3h9.4V52.1h-7.6l-0.1,1.4C262.6,58.6,262,62.2,261.1,64.3"/>
	<path class="st0" d="M289.4,48.1c3.5,0,6.1,0.8,7.7,2.4c1.6,1.6,2.4,4.1,2.4,7.7c0,3.5-0.8,6.1-2.4,7.7c-1.6,1.6-4.1,2.4-7.7,2.4
		c-3.5,0-6.1-0.8-7.7-2.4c-1.6-1.6-2.4-4.1-2.4-7.7c0-3.5,0.8-6.1,2.4-7.7C283.3,48.9,285.9,48.1,289.4,48.1 M284.7,53.3
		c-1,1-1.5,2.6-1.5,4.9c0,2.2,0.5,3.8,1.5,4.8c1,1,2.5,1.5,4.7,1.5c2.1,0,3.7-0.5,4.7-1.5c1-1,1.5-2.6,1.5-4.8
		c0-2.2-0.5-3.8-1.5-4.9c-1-1-2.5-1.5-4.7-1.5C287.2,51.8,285.7,52.3,284.7,53.3"/>
	<polygon class="st0" points="310,68 310,48.4 329.3,48.4 329.3,68 325.4,68 325.4,52.1 314,52.1 314,68 	"/>
	<path class="st0" d="M332.9,68V48.4h10c2.4,0,4.2,0.5,5.3,1.6c1.1,1,1.6,2.7,1.6,5s-0.5,4-1.6,5c-1.1,1-2.9,1.6-5.3,1.6h-6V68
		H332.9z M336.9,57.8h5.8c1.1,0,1.9-0.2,2.5-0.7c0.5-0.5,0.8-1.2,0.8-2.2c0-1-0.3-1.7-0.8-2.2c-0.5-0.5-1.3-0.7-2.5-0.7h-5.8V57.8z"
		/>
	<polygon class="st0" points="356.3,68 352.3,68 352.3,48.4 356.3,48.4 356.3,62.2 367.8,48.4 371.7,48.4 371.7,68 367.8,68 
		367.8,54.1 	"/>
	<polygon class="st0" points="375.3,68 375.3,48.4 389.6,48.4 389.6,52.1 379.3,52.1 379.3,68 	"/>
	<path class="st0" d="M401.3,48.1c3.5,0,6.1,0.8,7.7,2.4c1.6,1.6,2.4,4.1,2.4,7.7c0,3.5-0.8,6.1-2.4,7.7c-1.6,1.6-4.1,2.4-7.7,2.4
		c-3.5,0-6.1-0.8-7.7-2.4c-1.6-1.6-2.4-4.1-2.4-7.7c0-3.5,0.8-6.1,2.4-7.7C395.3,48.9,397.8,48.1,401.3,48.1 M396.7,53.3
		c-1,1-1.5,2.6-1.5,4.9c0,2.2,0.5,3.8,1.5,4.8c1,1,2.5,1.5,4.7,1.5c2.1,0,3.7-0.5,4.7-1.5c1-1,1.5-2.6,1.5-4.8
		c0-2.2-0.5-3.8-1.5-4.9c-1-1-2.5-1.5-4.7-1.5C399.2,51.8,397.6,52.3,396.7,53.3"/>
	<path class="st0" d="M417.1,72.5h-3.9v-8.3h2.6c0.5-0.4,1-1.4,1.3-2.8c0.3-1.5,0.6-4.2,0.8-8.2l0.3-4.9h15.2v15.9h3.2v8.3h-3.9V68
		h-15.5V72.5z M420,64.3h9.4V52.1h-7.6l-0.1,1.4C421.5,58.6,420.9,62.2,420,64.3"/>
	<polyline class="st1" points="197.8,87.2 238.8,46.2 205.8,35 153.7,87.2 	"/>
	<path class="st1" d="M238.8,43.2l-34.7-14.9l-6.5,3.6c-5.4,3-12.2,2-16.6-2.4L153.7,2.1h44L238.8,43.2z"/>
	<rect x="1.2" y="21.6" class="st0" width="13" height="46.2"/>
	<rect x="80" y="21.6" class="st0" width="13" height="46.2"/>
	<path class="st0" d="M58.2,39.6c8.4,0,14.7,4.7,14.7,14c0,7.7-5.6,14.1-14.7,14.1H22.7V21.6h44.5v11.3H35.7v6.7H58.2z M56.7,57.1
		c2.3,0,3.6-1,3.6-3.4c0-2.4-1.3-3.4-3.6-3.4h-21v6.8H56.7z"/>
	<path class="st0" d="M142.6,50c-1,4.7-7.2,7.5-15,7.5c-9.6,0-15-5.1-15-12.8c0-7.7,5.4-12.8,15-12.8c7.7,0,13.9,2.7,14.9,7.5h12.6
		c-1.2-11.4-11.4-18.8-27.5-18.8c-17.2,0-27.6,9.6-27.6,24.1s10.4,24.1,27.6,24.1c16.1,0,26.3-7.3,27.5-18.8H142.6z"/>
</g>
</svg>
